<svg xmlns="http://www.w3.org/2000/svg" viewBox="0 0 45.58 42.13"><g id="Layer_2" data-name="Layer 2"><g id="_0" data-name="0"><path d="M6.64,13.22a4.87,4.87,0,0,1,.52-2C8.78,7.88,13.61,3.37,18,1.23A12.38,12.38,0,0,1,21.45.05a5.13,5.13,0,0,1,.65,0,2.21,2.21,0,0,1,1.77.7,2.39,2.39,0,0,1,.51,1.66,3.78,3.78,0,0,1,0,.46,71.93,71.93,0,0,1-4.54,16.61c2.52-1.29,4.75-2.21,7.86-3.51l.17,0a.44.44,0,0,1,.46.41c0,.17-.12.36-.42.51a41.6,41.6,0,0,0-8.51,3.39C17,26.23,11,40.14,4.75,41.85A6.57,6.57,0,0,1,3,42.13c-2.11,0-3-1.43-3-3.29a9.39,9.39,0,0,1,1.21-4.29c2.14-4,7.2-9.11,17.42-14.51,2.93-7.31,4.85-14.24,5.16-17.28,0-.16,0-.31,0-.45a1.87,1.87,0,0,0-.35-1.24A1.73,1.73,0,0,0,22.08.58l-.54,0a11.64,11.64,0,0,0-3.28,1.13C14,3.83,9.49,7.84,7.93,11a3.83,3.83,0,0,0-.44,1.7c0,3.85,8,4.1,8,4.1h.17a.6.6,0,0,1,.63.64.9.9,0,0,1-.92.89l-.17,0S6.64,17.63,6.64,13.22ZM2.08,35.05A9.7,9.7,0,0,0,.77,39.3,2,2,0,0,0,3,41.56a6.35,6.35,0,0,0,1.63-.25c5.3-1.45,11.4-15.09,13.6-20.49C8.47,26,4.12,31.22,2.08,35.05Z"/><path d="M35.84,15.24a19.39,19.39,0,0,1-1,4.36c1.48-2,5.61-3.62,7-3.62h.24c.19,0,.27.14.27.24a.74.74,0,0,1-.27.44,10.15,10.15,0,0,0-7.76,4.07c-.7,2.42-2.31,6.62-3.13,8.76-.22.58-1.8,4.87-2.81,4.87a.18.18,0,0,1-.11,0c-.48-.15-.62-.65-.62-1.17a6.13,6.13,0,0,1,.22-1.43,29.82,29.82,0,0,1,1.42-3.86,38.83,38.83,0,0,1,3.86-6.54c.2-.73.54-1.85.71-2.52a34,34,0,0,0,.82-4.08.38.38,0,0,0,0-.17h0c-.59,0-4.78,5.44-6.29,5.84a2.71,2.71,0,0,1-.65.1.88.88,0,0,1-1-.78A2.55,2.55,0,0,1,26.6,19a23.17,23.17,0,0,1,1.16-5,.43.43,0,0,1,.47-.36c.43,0,1,.36,1,.75,0,0,0,.08,0,.12a19.16,19.16,0,0,0-1,4.23,3.4,3.4,0,0,0,0,.45c0,.27.1.42.27.42h0c1.53-.27,4.85-5.72,6.41-5.72C35.62,14,35.84,14.5,35.84,15.24Zm-3.3,8.26a52.8,52.8,0,0,0-2.32,4.81,30.42,30.42,0,0,0-1.39,3.81,7.06,7.06,0,0,0-.29,1.5v.05a18.77,18.77,0,0,0,2.3-4.58C31.36,27.68,32,25.11,32.54,23.5Z"/><path d="M45.17,17.58c.28,0,.41.27.41.56a1,1,0,0,1,0,.23,1.09,1.09,0,0,1-.87.72.33.33,0,0,1-.27-.15.42.42,0,0,1-.07-.24,2,2,0,0,1,.39-.9A.67.67,0,0,1,45.17,17.58Z"/></g></g></svg>