0
SECTION
2
HEADER
9
$INSUNITS
70
4
9
$ACADVER
1
AC1014
9
$HANDSEED
5
FFFF
0
ENDSEC
0
SECTION
2
TABLES
0
TABLE
2
VPORT
5
8
100
AcDbSymbolTable
0
ENDTAB
0
TABLE
2
LTYPE
5
5
100
AcDbSymbolTable
0
LTYPE
5
14
100
AcDbSymbolTableRecord
100
AcDbLinetypeTableRecord
2
BYBLOCK
70
0
0
LTYPE
5
15
100
AcDbSymbolTableRecord
100
AcDbLinetypeTableRecord
2
BYLAYER
70
0
0
ENDTAB
0
TABLE
2
LAYER
5
2
100
AcDbSymbolTable
70
2
0
LAYER
5
50
100
AcDbSymbolTableRecord
100
AcDbLayerTableRecord
2
0
70
0
6
CONTINUOUS
0
ENDTAB
0
TABLE
2
STYLE
5
3
100
AcDbSymbolTable
70
1
0
STYLE
5
11
100
AcDbSymbolTableRecord
100
AcDbTextStyleTableRecord
2
STANDARD
70
0
0
ENDTAB
0
TABLE
2
VIEW
5
6
100
AcDbSymbolTable
70
0
0
ENDTAB
0
TABLE
2
UCS
5
7
100
AcDbSymbolTable
70
0
0
ENDTAB
0
TABLE
2
APPID
5
9
100
AcDbSymbolTable
70
2
0
APPID
5
12
100
AcDbSymbolTableRecord
100
AcDbRegAppTableRecord
2
ACAD
70
0
0
ENDTAB
0
TABLE
2
DIMSTYLE
5
A
100
AcDbSymbolTable
70
1
0
ENDTAB
0
TABLE
2
BLOCK_RECORD
5
1
100
AcDbSymbolTable
70
1
0
BLOCK_RECORD
5
1F
100
AcDbSymbolTableRecord
100
AcDbBlockTableRecord
2
*MODEL_SPACE
0
BLOCK_RECORD
5
1B
100
AcDbSymbolTableRecord
100
AcDbBlockTableRecord
2
*PAPER_SPACE
0
ENDTAB
0
ENDSEC
0
SECTION
2
BLOCKS
0
BLOCK
5
20
100
AcDbEntity
100
AcDbBlockBegin
2
*MODEL_SPACE
0
ENDBLK
5
21
100
AcDbEntity
100
AcDbBlockEnd
0
BLOCK
5
1C
100
AcDbEntity
100
AcDbBlockBegin
2
*PAPER_SPACE
0
ENDBLK
5
1D
100
AcDbEntity
100
AcDbBlockEnd
0
ENDSEC
0
SECTION
2
ENTITIES
0
LWPOLYLINE
5
100
100
AcDbEntity
8
0
100
AcDbPolyline
90
28
70
1
43
0.0
10
-25.000000000000018
20
-20
10
-25.000000000000014
20
-6.666666666666675
10
-28.000000000000014
20
-6.6666666666666767
10
-28.000000000000014
20
6.666666666666659
10
-25.000000000000014
20
6.666666666666659
10
-25.000000000000018
20
19.999999999999993
10
-16.800000000000004
20
19.999999999999993
10
-16.800000000000004
20
22.999999999999993
10
-5.600000000000005
20
22.999999999999993
10
-5.600000000000005
20
19.999999999999993
10
5.5999999999999961
20
19.999999999999993
10
5.5999999999999961
20
22.999999999999993
10
16.799999999999997
20
22.999999999999993
10
16.799999999999997
20
19.999999999999993
10
25.000000000000007
20
19.999999999999993
10
25
20
6.666666666666659
10
28.000000000000004
20
6.6666666666666599
10
28.000000000000004
20
-6.666666666666675
10
25
20
-6.6666666666666767
10
25.000000000000007
20
-19.999999999999996
10
16.799999999999997
20
-20
10
16.799999999999997
20
-23.000000000000004
10
5.5999999999999961
20
-23.000000000000004
10
5.5999999999999961
20
-20
10
-5.600000000000005
20
-20
10
-5.600000000000005
20
-23.000000000000004
10
-16.800000000000004
20
-23.000000000000004
10
-16.800000000000004
20
-20
0
ARC
5
101
100
AcDbEntity
8
0
100
AcDbCircle
10
16.801765099656702
20
12.626465858952367
30
0
40
0.74732983429866429
210
0
220
-0
230
-1
100
AcDbArc
50
182.32491315358109
51
206.82351821886348
0
SPLINE
5
102
100
AcDbEntity
8
0
100
AcDbSpline
70
4
71
3
72
8
73
4
74
0
42
0.000000001
43
0.0000000001
44
0.0000000001
40
0
40
0
40
0
40
0
40
1
40
1
40
1
40
1
41
1
41
1
41
1
41
1
10
-16.134847453771471
20
12.289237842856771
30
0
10
-16.383445867424154
20
11.776695374838937
30
0
10
-17.124637474707203
20
11.084609583680798
30
0
10
-17.7983085848185
20
10.756214145651697
30
0
0
ARC
5
103
100
AcDbEntity
8
0
100
AcDbCircle
10
18.671130421438804
20
12.443625723515453
30
0
40
1.8997830906684807
210
0
220
-0
230
-1
100
AcDbArc
50
242.64951494019994
51
259.58614268921667
0
ARC
5
104
100
AcDbEntity
8
0
100
AcDbCircle
10
18.377604399684657
20
11.360783267542725
30
0
40
0.78722838307359488
210
0
220
-0
230
-1
100
AcDbArc
50
266.36772012479946
51
273.63227987519997
0
ARC
5
105
100
AcDbEntity
8
0
100
AcDbCircle
10
18.45072027380165
20
10.913476236924943
30
0
40
0.33913737189314447
210
0
220
-0
230
-1
100
AcDbArc
50
266.07015632782958
51
317.08546816612852
0
ARC
5
106
100
AcDbEntity
8
0
100
AcDbCircle
10
18.411593948139515
20
10.910274423183603
30
0
40
0.36675943005012812
210
-0
220
0
230
-1
100
AcDbArc
50
-38.381517340659208
51
4.2245566366566747
0
ARC
5
107
100
AcDbEntity
8
0
100
AcDbCircle
10
18.198368670318636
20
10.972586830885685
30
0
40
0.58006300177630632
210
-0
220
0
230
-1
100
AcDbArc
50
-3.4884062359283496
51
3.4884062359278389
0
ARC
5
108
100
AcDbEntity
8
0
100
AcDbCircle
10
7.8580511961802966
20
9.3929780497450714
30
0
40
11.038077304389661
210
0
220
0
230
-1
100
AcDbArc
50
8.4127392622581532
51
22.161708108172888
0
SPLINE
5
109
100
AcDbEntity
8
0
100
AcDbSpline
70
4
71
3
72
8
73
4
74
0
42
0.000000001
43
0.0000000001
44
0.0000000001
40
0
40
0
40
0
40
0
40
1
40
1
40
1
40
1
41
1
41
1
41
1
41
1
10
-18.080667320230496
20
13.556782819182631
30
0
10
-18.467376061254807
20
13.358824668648609
30
0
10
-18.809582473482319
20
13.217645593636362
30
0
10
-19.286830172747095
20
13.018152849761718
30
0
0
LINE
5
110
100
AcDbEntity
8
0
100
AcDbLine
10
-19.286830172747095
20
13.018152849761718
30
0
11
-19.312917674150171
21
13.018152849761718
31
0
0
ARC
5
111
100
AcDbEntity
8
0
100
AcDbCircle
10
19.316138569251326
20
13.085596544940062
30
0
40
0.067520561198512297
210
0
220
-0
230
-1
100
AcDbArc
50
267.26581425098618
51
356.15579249266881
0
SPLINE
5
112
100
AcDbEntity
8
0
100
AcDbSpline
70
4
71
3
72
8
73
4
74
0
42
0.000000001
43
0.0000000001
44
0.0000000001
40
0
40
0
40
0
40
0
40
1
40
1
40
1
40
1
41
1
41
1
41
1
41
1
10
-19.383507211656294
20
13.081069713258479
30
0
10
-19.383507211656294
20
13.107157214661559
30
0
10
-19.365092384262578
20
13.136313902745883
30
0
10
-19.319055754818912
20
13.159332217467716
30
0
0
ARC
5
113
100
AcDbEntity
8
0
100
AcDbCircle
10
21.014194691442995
20
19.313917550474248
30
0
40
6.3837619501135983
210
0
220
-0
230
-1
100
AcDbArc
50
241.95878981850734
51
254.60100637037411
0
SPLINE
5
114
100
AcDbEntity
8
0
100
AcDbSpline
70
4
71
3
72
8
73
4
74
0
42
0.000000001
43
0.0000000001
44
0.0000000001
40
0
40
0
40
0
40
0
40
1
40
1
40
1
40
1
41
1
41
1
41
1
41
1
10
-18.01314667671187
20
13.67954735949491
30
0
10
-17.644852763081275
20
14.592609615908906
30
0
10
-16.724117832657921
20
16.727180072858218
30
0
10
-15.765018946800257
20
16.989589387535876
30
0
0
ARC
5
115
100
AcDbEntity
8
0
100
AcDbCircle
10
15.472912365205772
20
16.024627930462813
30
0
40
1.0082047751560121
210
0
220
0
230
-1
100
AcDbArc
50
73.158242698205896
51
88.661037842941866
0
SPLINE
5
116
100
AcDbEntity
8
0
100
AcDbSpline
70
4
71
3
72
8
73
4
74
0
42
0.000000001
43
0.0000000001
44
0.0000000001
40
0
40
0
40
0
40
0
40
1
40
1
40
1
40
1
41
1
41
1
41
1
41
1
10
-15.496471258760113
20
17.032557415685798
30
0
10
-15.172679490992723
20
17.032557415685798
30
0
10
-15.036103793548435
20
16.813115543770568
30
0
10
-15.036103793548435
20
16.527687621677323
30
0
0
ARC
5
117
100
AcDbEntity
8
0
100
AcDbCircle
10
16.476157553979636
20
16.57850789440695
30
0
40
1.4409502187974286
210
0
220
-0
230
-1
100
AcDbArc
50
182.02116012763003
51
209.48118175388197
0
SPLINE
5
118
100
AcDbEntity
8
0
100
AcDbSpline
70
4
71
3
72
8
73
4
74
0
42
0.000000001
43
0.0000000001
44
0.0000000001
40
0
40
0
40
0
40
0
40
1
40
1
40
1
40
1
41
1
41
1
41
1
41
1
10
-15.221785343704353
20
15.869362005931627
30
0
10
-15.550180818320174
20
15.255538718982722
30
0
10
-16.326667230943002
20
14.471379376243497
30
0
10
-17.894985916421454
20
13.642717997401226
30
0
0
SPLINE
5
119
100
AcDbEntity
8
0
100
AcDbSpline
70
4
71
3
72
8
73
4
74
0
42
0.000000001
43
0.0000000001
44
0.0000000001
40
0
40
0
40
0
40
0
40
1
40
1
40
1
40
1
41
1
41
1
41
1
41
1
10
-17.894985916421454
20
13.642717997401226
30
0
10
-18.344611520942525
20
12.520956022456355
30
0
10
-18.639246710385752
20
11.457507130986379
30
0
10
-18.68681793317004
20
10.991001292412212
30
0
0
SPLINE
5
120
100
AcDbEntity
8
0
100
AcDbSpline
70
4
71
3
72
8
73
4
74
0
42
0.000000001
43
0.0000000001
44
0.0000000001
40
0
40
0
40
0
40
0
40
1
40
1
40
1
40
1
41
1
41
1
41
1
41
1
10
-18.68681793317004
20
10.991001292412212
30
0
10
-18.68681793317004
20
10.966448347763038
30
0
10
-18.68681793317004
20
10.943429996454485
30
0
10
-18.68681793317004
20
10.921946165313116
30
0
0
ARC
5
121
100
AcDbEntity
8
0
100
AcDbCircle
10
18.400697234463614
20
10.899983525608945
30
0
40
0.28696238738034707
210
-0
220
0
230
-1
100
AcDbArc
50
-35.91374749166728
51
4.3894195428520444
0
ARC
5
122
100
AcDbEntity
8
0
100
AcDbCircle
10
18.447001096512011
20
10.920983338090299
30
0
40
0.26547857453233781
210
0
220
-0
230
-1
100
AcDbArc
50
265.1181068784532
51
314.50933501399675
0
LINE
5
123
100
AcDbEntity
8
0
100
AcDbLine
10
-18.424408325798634
20
10.656467856034492
30
0
11
-18.341542041567529
21
10.656467856034491
31
0
0
ARC
5
124
100
AcDbEntity
8
0
100
AcDbCircle
10
18.665194785006847
20
12.413127064163469
30
0
40
1.7862258177061838
210
0
220
-0
230
-1
100
AcDbArc
50
242.42039038470816
51
259.56070679242782
0
SPLINE
5
125
100
AcDbEntity
8
0
100
AcDbSpline
70
4
71
3
72
8
73
4
74
0
42
0.000000001
43
0.0000000001
44
0.0000000001
40
0
40
0
40
0
40
0
40
1
40
1
40
1
40
1
41
1
41
1
41
1
41
1
10
-17.838206840899677
20
10.829872943012502
30
0
10
-17.184485297869596
20
11.155199267533796
30
0
10
-16.492399506711457
20
11.770557147823322
30
0
10
-16.253008433582199
20
12.255477521097456
30
0
0
ARC
5
126
100
AcDbEntity
8
0
100
AcDbCircle
10
16.773081891611284
20
12.529260193786644
30
0
40
0.58773578554582628
210
0
220
-0
230
-1
100
AcDbArc
50
181.25842637521865
51
207.76369935873475
0
SPLINE
5
127
100
AcDbEntity
8
0
100
AcDbSpline
70
0
71
2
72
6
73
3
74
0
42
0.000000001
43
0.0000000001
44
0.0000000001
40
0
40
0
40
0
40
1
40
1
40
1
10
-16.185487863237007
20
12.516352388781364
30
0
10
-16.185487863237007
20
13.107157214661559
30
0
10
-17.413134437134815
20
13.145521170095865
30
0
0
LINE
5
128
100
AcDbEntity
8
0
100
AcDbLine
10
-17.413134437134815
20
13.145521170095867
30
0
11
-17.439221938537891
21
13.145521170095865
31
0
0
ARC
5
129
100
AcDbEntity
8
0
100
AcDbCircle
10
17.444038821067174
20
13.237468581356049
30
0
40
0.09207349670100759
210
0
220
-0
230
-1
100
AcDbArc
50
-92.998833509711432
51
3.9011322837618891
0
ARC
5
130
100
AcDbEntity
8
0
100
AcDbCircle
10
17.39779689137082
20
13.242232441365832
30
0
40
0.13811023590483115
210
0
220
0
230
-1
100
AcDbArc
50
0.62244512346052072
51
91.276732609441765
0
LINE
5
131
100
AcDbEntity
8
0
100
AcDbLine
10
-17.394719609741095
20
13.380308390029821
30
0
11
-17.368632108338019
21
13.380308390029821
31
0
0
SPLINE
5
132
100
AcDbEntity
8
0
100
AcDbSpline
70
0
71
2
72
6
73
3
74
0
42
0.000000001
43
0.0000000001
44
0.0000000001
40
0
40
0
40
0
40
1
40
1
40
1
10
-17.368632108338019
20
13.380308390029821
30
0
10
-16.055050429395052
20
13.272889490430014
30
0
10
-16.055050429395052
20
12.596149486331223
30
0
0
ARC
5
133
100
AcDbEntity
8
0
100
AcDbCircle
10
16.639376859740722
20
16.698965653719441
30
0
40
1.4885214415817165
210
0
220
-0
230
-1
100
AcDbArc
50
183.87863700067143
51
210.38365117815391
0
ARC
5
134
100
AcDbEntity
8
0
100
AcDbCircle
10
15.458249090624353
20
16.640565357974666
30
0
40
0.30691164347445204
210
0
220
0
230
-1
100
AcDbArc
50
82.845922238024258
51
187.91976519242388
0
ARC
5
135
100
AcDbEntity
8
0
100
AcDbCircle
10
15.475061201805067
20
15.970878425212714
30
0
40
0.97444445339669761
210
0
220
0
230
-1
100
AcDbArc
50
73.819486699648422
51
88.741021493470157
0
SPLINE
5
136
100
AcDbEntity
8
0
100
AcDbSpline
70
4
71
3
72
8
73
4
74
0
42
0.000000001
43
0.0000000001
44
0.0000000001
40
0
40
0
40
0
40
0
40
1
40
1
40
1
40
1
41
1
41
1
41
1
41
1
10
-15.746604265753417
20
16.906723688692274
30
0
10
-16.559920150230091
20
16.6842126300958
30
0
10
-17.496000428672165
20
14.591075315262035
30
0
10
-17.833603353571561
20
13.762413936419765
30
0
0
SPLINE
5
137
100
AcDbEntity
8
0
100
AcDbSpline
70
4
71
3
72
8
73
4
74
0
42
0.000000001
43
0.0000000001
44
0.0000000001
40
0
40
0
40
0
40
0
40
1
40
1
40
1
40
1
41
1
41
1
41
1
41
1
10
-17.833603353571561
20
13.762413936419765
30
0
10
-16.335874644639862
20
14.557314847155844
30
0
10
-15.66834176154418
20
15.358354131254416
30
0
10
-15.355291891054115
20
15.94608991680024
30
0
0
ARC
5
138
100
AcDbEntity
8
0
100
AcDbCircle
10
17.578387753112448
20
12.579919779743783
30
0
40
2.9755082898228107
210
0
220
0
230
-1
100
AcDbArc
50
6.2940920705060259
51
19.541530121983246
0
SPLINE
5
139
100
AcDbEntity
8
0
100
AcDbSpline
70
4
71
3
72
8
73
4
74
0
42
0.000000001
43
0.0000000001
44
0.0000000001
40
0
40
0
40
0
40
0
40
1
40
1
40
1
40
1
41
1
41
1
41
1
41
1
10
-20.382504646288886
20
13.575197646576349
30
0
10
-20.609619192213479
20
13.268286003101897
30
0
10
-21.243391899896725
20
13.019687589449216
30
0
10
-21.456695398449469
20
13.019687589449216
30
0
0
LINE
5
140
100
AcDbEntity
8
0
100
AcDbLine
10
-21.456695398449469
20
13.019687589449216
30
0
11
-21.493525053236905
21
13.019687589449216
31
0
0
SPLINE
5
141
100
AcDbEntity
8
0
100
AcDbSpline
70
4
71
3
72
8
73
4
74
0
42
0.000000001
43
0.0000000001
44
0.0000000001
40
0
40
0
40
0
40
0
40
1
40
1
40
1
40
1
41
1
41
1
41
1
41
1
10
-21.493525053236905
20
13.019687589449216
30
0
10
-21.522681448627473
20
13.019687589449216
30
0
10
-21.534958195352452
20
13.041171457177303
30
0
10
-21.534958195352452
20
13.056517097889774
30
0
0
ARC
5
142
100
AcDbEntity
8
0
100
AcDbCircle
10
21.423533004507725
20
13.034615285242722
30
0
40
0.11355730954901813
210
0
220
0
230
-1
100
AcDbArc
50
11.120329089584507
51
51.949279324817809
0
ARC
5
143
100
AcDbEntity
8
0
100
AcDbCircle
10
21.550702872747102
20
14.680564435778381
30
0
40
1.5575765320940946
210
0
220
-0
230
-1
100
AcDbArc
50
216.75115648462179
51
267.8962292309655
0
SPLINE
5
144
100
AcDbEntity
8
0
100
AcDbSpline
70
4
71
3
72
8
73
4
74
0
42
0.000000001
43
0.0000000001
44
0.0000000001
40
0
40
0
40
0
40
0
40
1
40
1
40
1
40
1
41
1
41
1
41
1
41
1
10
-20.302707548739029
20
13.748602889047916
30
0
10
-20.195288356445467
20
14.119965989359752
30
0
10
-19.948224389786535
20
14.764480557733602
30
0
10
-19.822390662793012
20
15.092875922589265
30
0
0
SPLINE
5
145
100
AcDbEntity
8
0
100
AcDbSpline
70
4
71
3
72
8
73
4
74
0
42
0.000000001
43
0.0000000001
44
0.0000000001
40
0
40
0
40
0
40
0
40
1
40
1
40
1
40
1
41
1
41
1
41
1
41
1
10
-19.822390662793012
20
15.092875922589265
30
0
10
-19.788630487380573
20
15.181880287489104
30
0
10
-19.546170300743505
20
15.840205610541053
30
0
10
-19.391179885665654
20
15.840205610541053
30
0
0
ARC
5
146
100
AcDbEntity
8
0
100
AcDbCircle
10
19.382739768639109
20
15.813904621660297
30
0
40
0.027622049010301131
210
0
220
0
230
-1
100
AcDbArc
50
72.208308137947583
51
107.79169186205942
0
SPLINE
5
147
100
AcDbEntity
8
0
100
AcDbSpline
70
4
71
3
72
8
73
4
74
0
42
0.000000001
43
0.0000000001
44
0.0000000001
40
0
40
0
40
0
40
0
40
1
40
1
40
1
40
1
41
1
41
1
41
1
41
1
10
-19.37429965161256
20
15.840205610541053
30
0
10
-19.300640927425192
20
15.81718700312547
30
0
10
-19.279156913350231
20
15.740459092256856
30
0
10
-19.279156913350231
20
15.660662580094499
30
0
0
ARC
5
148
100
AcDbEntity
8
0
100
AcDbCircle
10
20.2192858369079
20
15.692979452945384
30
0
40
0.94068420481081971
210
0
220
-0
230
-1
100
AcDbArc
50
181.96876362134208
51
195.52350347706732
0
ARC
5
149
100
AcDbEntity
8
0
100
AcDbCircle
10
23.706313100894938
20
16.721192773663873
30
0
40
4.5760525573730773
210
0
220
-0
230
-1
100
AcDbArc
50
196.24295481310011
51
204.15172100386437
0
ARC
5
150
100
AcDbEntity
8
0
100
AcDbCircle
10
24.933955893468173
20
17.361281251917141
30
0
40
5.9586898390424867
210
0
220
-0
230
-1
100
AcDbArc
50
204.93793895450912
51
216.16146615407962
0
SPLINE
5
151
100
AcDbEntity
8
0
100
AcDbSpline
70
4
71
3
72
8
73
4
74
0
42
0.000000001
43
0.0000000001
44
0.0000000001
40
0
40
0
40
0
40
0
40
1
40
1
40
1
40
1
41
1
41
1
41
1
41
1
10
-20.123163932904973
20
13.845279927957117
30
0
10
-20.153855214329916
20
13.733257248335441
30
0
10
-20.206030217136075
20
13.5613865992045
30
0
10
-20.232117425845399
20
13.458571186932806
30
0
0
ARC
5
152
100
AcDbEntity
8
0
100
AcDbCircle
10
15.189411523819921
20
12.119391613525266
30
0
40
5.2174979390656837
210
0
220
0
230
-1
100
AcDbArc
50
7.8552476536259901
51
14.872612792340798
0
ARC
5
153
100
AcDbEntity
8
0
100
AcDbCircle
10
20.301115501999043
20
12.819427695251136
30
0
40
0.058313211528410153
210
-0
220
0
230
-1
100
AcDbArc
50
-12.925523139726085
51
12.925523139723596
0
SPLINE
5
154
100
AcDbEntity
8
0
100
AcDbSpline
70
4
71
3
72
8
73
4
74
0
42
0.000000001
43
0.0000000001
44
0.0000000001
40
0
40
0
40
0
40
0
40
1
40
1
40
1
40
1
41
1
41
1
41
1
41
1
10
-20.357951152838925
20
12.806383944549598
30
0
10
-20.267412194598464
20
12.806383944549598
30
0
10
-19.624432219565236
20
13.641183696754355
30
0
10
-19.392713893618772
20
13.702565966910496
30
0
0
ARC
5
155
100
AcDbEntity
8
0
100
AcDbCircle
10
19.280072429899487
20
13.302246302070394
30
0
40
0.41586528276175694
210
0
220
0
230
-1
100
AcDbArc
50
74.284524082351723
51
88.223075589246136
0
ARC
5
156
100
AcDbEntity
8
0
100
AcDbCircle
10
19.273827165544105
20
13.584233838704948
30
0
40
0.13504112239702556
210
0
220
0
230
-1
100
AcDbArc
50
81.851551878004727
51
174.05695879277559
0
ARC
5
157
100
AcDbEntity
8
0
100
AcDbCircle
10
19.50910988153354
20
13.469675546237143
30
0
40
0.39131233811258215
210
0
220
0
230
-1
100
AcDbArc
50
160.82312490339271
51
178.03048159282716
0
ARC
5
158
100
AcDbEntity
8
0
100
AcDbCircle
10
22.649301938750057
20
13.898090811946741
30
0
40
3.5555714013592739
210
0
220
-0
230
-1
100
AcDbArc
50
186.70219982609109
51
199.4208990221201
0
ARC
5
159
100
AcDbEntity
8
0
100
AcDbCircle
10
19.361202865373322
20
12.726218998605713
30
0
40
0.065986004444608309
210
0
220
-0
230
-1
100
AcDbArc
50
189.04530153267308
51
276.05351394256019
0
SPLINE
5
160
100
AcDbEntity
8
0
100
AcDbSpline
70
4
71
3
72
8
73
4
74
0
42
0.000000001
43
0.0000000001
44
0.0000000001
40
0
40
0
40
0
40
0
40
1
40
1
40
1
40
1
41
1
41
1
41
1
41
1
10
-19.368161570943823
20
12.660600943168607
30
0
10
-19.434147621121831
20
12.660600943168607
30
0
10
-19.521617392681048
20
12.715844986309133
30
0
10
-19.521617392681048
20
12.775692809471526
30
0
0
SPLINE
5
161
100
AcDbEntity
8
0
100
AcDbSpline
70
0
71
2
72
6
73
3
74
0
42
0.000000001
43
0.0000000001
44
0.0000000001
40
0
40
0
40
0
40
1
40
1
40
1
10
-19.521617392681048
20
12.775692809471526
30
0
10
-19.521617392681048
20
12.787969263502754
30
0
10
-19.521617392681048
20
12.794107490518369
30
0
0
ARC
5
162
100
AcDbEntity
8
0
100
AcDbCircle
10
22.287765707856689
20
13.79074134903027
30
0
40
2.9402135210697482
210
0
220
-0
230
-1
100
AcDbArc
50
186.78788866899515
51
199.81391959888617
0
ARC
5
163
100
AcDbEntity
8
0
100
AcDbCircle
10
19.888767666066052
20
13.477753164649959
30
0
40
0.52174980854125608
210
0
220
0
230
-1
100
AcDbArc
50
176.20558826287302
51
183.79441173712689
0
SPLINE
5
164
100
AcDbEntity
8
0
100
AcDbSpline
70
4
71
3
72
8
73
4
74
0
42
0.000000001
43
0.0000000001
44
0.0000000001
40
0
40
0
40
0
40
0
40
1
40
1
40
1
40
1
41
1
41
1
41
1
41
1
10
-19.368161570943823
20
13.512280783079586
30
0
10
-19.368161570943823
20
13.553713925195137
30
0
10
-19.383507211656294
20
13.576732239916971
30
0
10
-19.409594713059374
20
13.576732239916971
30
0
0
SPLINE
5
165
100
AcDbEntity
8
0
100
AcDbSpline
70
4
71
3
72
8
73
4
74
0
42
0.000000001
43
0.0000000001
44
0.0000000001
40
0
40
0
40
0
40
0
40
1
40
1
40
1
40
1
41
1
41
1
41
1
41
1
10
-19.409594713059374
20
13.576732239916971
30
0
10
-19.644382225687082
20
13.535299097801419
30
0
10
-20.153855214329916
20
12.698965044949791
30
0
10
-20.393246506979491
20
12.698965044949791
30
0
0
SPLINE
5
166
100
AcDbEntity
8
0
100
AcDbSpline
70
4
71
3
72
8
73
4
74
0
42
0.000000001
43
0.0000000001
44
0.0000000001
40
0
40
0
40
0
40
0
40
1
40
1
40
1
40
1
41
1
41
1
41
1
41
1
10
-20.393246506979491
20
12.698965044949791
30
0
10
-20.50219999991992
20
12.715844986309133
30
0
10
-20.535960468026111
20
12.792572897177745
30
0
10
-20.535960468026111
20
12.906130170140045
30
0
0
ARC
5
167
100
AcDbEntity
8
0
100
AcDbCircle
10
27.140128569519888
20
18.05822660735009
30
0
40
8.1024672706480274
210
0
220
-0
230
-1
100
AcDbArc
50
202.85060991897632
51
208.64806363859125
0
ARC
5
168
100
AcDbEntity
8
0
100
AcDbCircle
10
23.942524358546947
20
16.800491611692991
30
0
40
4.6681261089541648
210
0
220
-0
230
-1
100
AcDbArc
50
196.22123902237854
51
203.86566187223539
0
ARC
5
169
100
AcDbEntity
8
0
100
AcDbCircle
10
20.495440430946857
20
15.815998352159927
30
0
40
1.0833980926840034
210
0
220
-0
230
-1
100
AcDbArc
50
184.73068651927639
51
197.15375171982143
0
LINE
5
170
100
AcDbEntity
8
0
100
AcDbLine
10
-19.415733086421863
20
15.726648044885005
30
0
11
-19.415733086421866
21
15.734320718894367
31
0
0
ARC
5
171
100
AcDbEntity
8
0
100
AcDbCircle
10
17.042282381096548
20
14.102377354026228
30
0
40
2.8803658442542308
210
0
220
0
230
-1
100
AcDbArc
50
18.818337096894041
51
34.511735844273055
0
SPLINE
5
172
100
AcDbEntity
8
0
100
AcDbSpline
70
4
71
3
72
8
73
4
74
0
42
0.000000001
43
0.0000000001
44
0.0000000001
40
0
40
0
40
0
40
0
40
1
40
1
40
1
40
1
41
1
41
1
41
1
41
1
10
-19.768681359339983
20
15.03149306704562
30
0
10
-19.84847845688984
20
14.815120674505383
30
0
10
-19.946690089139665
20
14.420739259471713
30
0
10
-20.029556373370767
20
14.17367529281278
30
0
0
SPLINE
5
173
100
AcDbEntity
8
0
100
AcDbSpline
70
4
71
3
72
8
73
4
74
0
42
0.000000001
43
0.0000000001
44
0.0000000001
40
0
40
0
40
0
40
0
40
1
40
1
40
1
40
1
41
1
41
1
41
1
41
1
10
-21.967702980432925
20
13.265216816420651
30
0
10
-22.01067042319535
20
13.265216816420651
30
0
10
-22.030619843929689
20
13.306649958536203
30
0
10
-22.030619843929689
20
13.351151994639247
30
0
0
ARC
5
174
100
AcDbEntity
8
0
100
AcDbCircle
10
21.878182122057069
20
13.36879937901578
30
0
40
0.15345582173722627
210
-0
220
0
230
-1
100
AcDbArc
50
-6.603611847185725
51
6.6036118471838146
0
ARC
5
175
100
AcDbEntity
8
0
100
AcDbCircle
10
21.872646962839568
20
13.331467056027746
30
0
40
0.16726685081571571
210
0
220
0
230
-1
100
AcDbArc
50
19.189560989161794
51
81.589047106205655
0
ARC
5
176
100
AcDbEntity
8
0
100
AcDbCircle
10
21.898130695104314
20
13.446304644672598
30
0
40
0.050640423185556088
210
0
220
0
230
-1
100
AcDbArc
50
91.151020732164781
51
146.95798127174709
0
ARC
5
177
100
AcDbEntity
8
0
100
AcDbCircle
10
21.909378968284404
20
13.438273279888065
30
0
40
0.064451443117366961
210
0
220
0
230
-1
100
AcDbArc
50
146.42521540644296
51
181.05448008877033
0
ARC
5
178
100
AcDbEntity
8
0
100
AcDbCircle
10
22.1478728518479
20
13.486336529114064
30
0
40
0.30691164347444866
210
0
220
-0
230
-1
100
AcDbArc
50
189.2340349152264
51
217.62330299527085
0
ARC
5
179
100
AcDbEntity
8
0
100
AcDbCircle
10
21.981832603816844
20
13.36705669496922
30
0
40
0.10281540312500961
210
0
220
-0
230
-1
100
AcDbArc
50
221.46441076290921
51
262.10100876834855
0
ENDSEC
0
SECTION
2
OBJECTS
0
DICTIONARY
5
C
100
AcDbDictionary
3
ACAD_GROUP
350
D
3
ACAD_MLINESTYLE
350
17
0
DICTIONARY
5
D
100
AcDbDictionary
0
DICTIONARY
5
1A
330
C
100
AcDbDictionary
0
DICTIONARY
5
17
100
AcDbDictionary
0
ENDSEC
0
EOF
