0
SECTION
2
HEADER
9
$INSUNITS
70
4
9
$ACADVER
1
AC1014
9
$HANDSEED
5
FFFF
0
ENDSEC
0
SECTION
2
TABLES
0
TABLE
2
VPORT
5
8
100
AcDbSymbolTable
0
ENDTAB
0
TABLE
2
LTYPE
5
5
100
AcDbSymbolTable
0
LTYPE
5
14
100
AcDbSymbolTableRecord
100
AcDbLinetypeTableRecord
2
BYBLOCK
70
0
0
LTYPE
5
15
100
AcDbSymbolTableRecord
100
AcDbLinetypeTableRecord
2
BYLAYER
70
0
0
ENDTAB
0
TABLE
2
LAYER
5
2
100
AcDbSymbolTable
70
2
0
LAYER
5
50
100
AcDbSymbolTableRecord
100
AcDbLayerTableRecord
2
0
70
0
6
CONTINUOUS
0
ENDTAB
0
TABLE
2
STYLE
5
3
100
AcDbSymbolTable
70
1
0
STYLE
5
11
100
AcDbSymbolTableRecord
100
AcDbTextStyleTableRecord
2
STANDARD
70
0
0
ENDTAB
0
TABLE
2
VIEW
5
6
100
AcDbSymbolTable
70
0
0
ENDTAB
0
TABLE
2
UCS
5
7
100
AcDbSymbolTable
70
0
0
ENDTAB
0
TABLE
2
APPID
5
9
100
AcDbSymbolTable
70
2
0
APPID
5
12
100
AcDbSymbolTableRecord
100
AcDbRegAppTableRecord
2
ACAD
70
0
0
ENDTAB
0
TABLE
2
DIMSTYLE
5
A
100
AcDbSymbolTable
70
1
0
ENDTAB
0
TABLE
2
BLOCK_RECORD
5
1
100
AcDbSymbolTable
70
1
0
BLOCK_RECORD
5
1F
100
AcDbSymbolTableRecord
100
AcDbBlockTableRecord
2
*MODEL_SPACE
0
BLOCK_RECORD
5
1B
100
AcDbSymbolTableRecord
100
AcDbBlockTableRecord
2
*PAPER_SPACE
0
ENDTAB
0
ENDSEC
0
SECTION
2
BLOCKS
0
BLOCK
5
20
100
AcDbEntity
100
AcDbBlockBegin
2
*MODEL_SPACE
0
ENDBLK
5
21
100
AcDbEntity
100
AcDbBlockEnd
0
BLOCK
5
1C
100
AcDbEntity
100
AcDbBlockBegin
2
*PAPER_SPACE
0
ENDBLK
5
1D
100
AcDbEntity
100
AcDbBlockEnd
0
ENDSEC
0
SECTION
2
ENTITIES
0
ARC
5
100
100
AcDbEntity
8
0
100
AcDbCircle
10
22.25011245619584
20
-13.025249521482882
30
0
40
3.5415172791637146
210
0
220
0
230
1
100
AcDbArc
50
160.1860804011138
51
173.21211133100485
0
ARC
5
101
100
AcDbEntity
8
0
100
AcDbCircle
10
19.360494761155003
20
-12.648252049968072
30
0
40
0.62845298448832632
210
0
220
0
230
1
100
AcDbArc
50
176.20558826287302
51
183.79441173712698
0
SPLINE
5
102
100
AcDbEntity
8
0
100
AcDbSpline
70
4
71
3
72
8
73
4
74
0
42
0.000000001
43
0.0000000001
44
0.0000000001
40
0
40
0
40
0
40
0
40
1
40
1
40
1
40
1
41
1
41
1
41
1
41
1
10
18.733419391185784
20
-12.689840919756142
30
0
10
18.733419391185784
20
-12.739747563501824
30
0
10
18.751903372486328
20
-12.767473359176332
30
0
10
18.783326034931466
20
-12.767473359176332
30
0
0
SPLINE
5
103
100
AcDbEntity
8
0
100
AcDbSpline
70
4
71
3
72
8
73
4
74
0
42
0.000000001
43
0.0000000001
44
0.0000000001
40
0
40
0
40
0
40
0
40
1
40
1
40
1
40
1
41
1
41
1
41
1
41
1
10
18.783326034931466
20
-12.767473359176332
30
0
10
19.066129996937722
20
-12.717566715430646
30
0
10
19.679795426205363
20
-11.710193788906103
30
0
10
19.96814468836757
20
-11.710193788906103
30
0
0
SPLINE
5
104
100
AcDbEntity
8
0
100
AcDbSpline
70
4
71
3
72
8
73
4
74
0
42
0.000000001
43
0.0000000001
44
0.0000000001
40
0
40
0
40
0
40
0
40
1
40
1
40
1
40
1
41
1
41
1
41
1
41
1
10
19.96814468836757
20
-11.710193788906103
30
0
10
20.099380285751458
20
-11.730525851039344
30
0
10
20.140045115123179
20
-11.822945404989447
30
0
10
20.140045115123179
20
-11.959726302529283
30
0
0
ARC
5
105
100
AcDbEntity
8
0
100
AcDbCircle
10
16.577618509303321
20
-11.566802548539183
30
0
40
3.5840301893682285
210
0
220
0
230
1
100
AcDbArc
50
340.45846987801684
51
353.70590792949372
0
SPLINE
5
106
100
AcDbEntity
8
0
100
AcDbSpline
70
4
71
3
72
8
73
4
74
0
42
0.000000001
43
0.0000000001
44
0.0000000001
40
0
40
0
40
0
40
0
40
1
40
1
40
1
40
1
41
1
41
1
41
1
41
1
10
19.955206007222973
20
-12.765624925791014
30
0
10
20.228767802302649
20
-12.395946709990607
30
0
10
20.992153515359959
20
-12.096507376345432
30
0
10
21.24907976252441
20
-12.096507376345432
30
0
0
LINE
5
107
100
AcDbEntity
8
0
100
AcDbLine
10
21.24907976252441
20
-12.096507376345432
30
0
11
21.293441458666763
21
-12.096507376345432
31
0
0
SPLINE
5
108
100
AcDbEntity
8
0
100
AcDbSpline
70
4
71
3
72
8
73
4
74
0
42
0.000000001
43
0.0000000001
44
0.0000000001
40
0
40
0
40
0
40
0
40
1
40
1
40
1
40
1
41
1
41
1
41
1
41
1
10
21.293441458666763
20
-12.096507376345432
30
0
10
21.328560635329914
20
-12.096507376345432
30
0
10
21.343348102412449
20
-12.122384914910931
30
0
10
21.343348102412449
20
-12.140868896211474
30
0
0
ARC
5
109
100
AcDbEntity
8
0
100
AcDbCircle
10
21.209135319605039
20
-12.114487938713419
30
0
40
0.13678094160892421
210
0
220
0
230
1
100
AcDbArc
50
308.05072067518245
51
348.87967091041628
0
ARC
5
110
100
AcDbEntity
8
0
100
AcDbCircle
10
21.362312727480806
20
-14.097050536795081
30
0
40
1.8761168746765522
210
0
220
0
230
1
100
AcDbArc
50
92.103770769034469
51
143.24884351537816
0
SPLINE
5
111
100
AcDbEntity
8
0
100
AcDbSpline
70
4
71
3
72
8
73
4
74
0
42
0.000000001
43
0.0000000001
44
0.0000000001
40
0
40
0
40
0
40
0
40
1
40
1
40
1
40
1
41
1
41
1
41
1
41
1
10
19.85908958650224
20
-12.974493315147713
30
0
10
19.729702069951045
20
-13.421803970368313
30
0
10
19.432110993414881
20
-14.198128364570222
30
0
10
19.280542981345128
20
-14.593683942659821
30
0
0
SPLINE
5
112
100
AcDbEntity
8
0
100
AcDbSpline
70
4
71
3
72
8
73
4
74
0
42
0.000000001
43
0.0000000001
44
0.0000000001
40
0
40
0
40
0
40
0
40
1
40
1
40
1
40
1
41
1
41
1
41
1
41
1
10
19.280542981345128
20
-14.593683942659821
30
0
10
19.239878504526029
20
-14.700890611139833
30
0
10
18.947832728145812
20
-15.493850200704351
30
0
10
18.76114518686029
20
-15.493850200704351
30
0
0
ARC
5
113
100
AcDbEntity
8
0
100
AcDbCircle
10
18.750978979517356
20
-15.46217039040728
30
0
40
0.0332710407441364
210
0
220
0
230
1
100
AcDbArc
50
252.2083081379642
51
287.79169186204837
0
SPLINE
5
114
100
AcDbEntity
8
0
100
AcDbSpline
70
4
71
3
72
8
73
4
74
0
42
0.000000001
43
0.0000000001
44
0.0000000001
40
0
40
0
40
0
40
0
40
1
40
1
40
1
40
1
41
1
41
1
41
1
41
1
10
18.740812772174429
20
-15.493850200704351
30
0
10
18.65209008499496
20
-15.466124052477227
30
0
10
18.626212370153148
20
-15.373704498527124
30
0
10
18.626212370153148
20
-15.277588782911629
30
0
0
ARC
5
115
100
AcDbEntity
8
0
100
AcDbCircle
10
19.758607280781742
20
-15.316514787023149
30
0
40
1.1330637525813083
210
0
220
0
230
1
100
AcDbArc
50
164.47649652293148
51
178.03123637865846
0
ARC
5
116
100
AcDbEntity
8
0
100
AcDbCircle
10
23.958767309918493
20
-16.555008255574283
30
0
40
5.511902141175403
210
0
220
0
230
1
100
AcDbArc
50
155.84827899613529
51
163.75704518689989
0
ARC
5
117
100
AcDbEntity
8
0
100
AcDbCircle
10
25.437475618475936
20
-17.326001378924882
30
0
40
7.1773028982150997
210
0
220
0
230
1
100
AcDbArc
50
143.83853384592015
51
155.06206104549125
0
SPLINE
5
118
100
AcDbEntity
8
0
100
AcDbSpline
70
4
71
3
72
8
73
4
74
0
42
0.000000001
43
0.0000000001
44
0.0000000001
40
0
40
0
40
0
40
0
40
1
40
1
40
1
40
1
41
1
41
1
41
1
41
1
10
19.642827463604277
20
-13.09094179800169
30
0
10
19.679795426205363
20
-12.95600933384717
30
0
10
19.742640751095642
20
-12.748989377875786
30
0
10
19.774063060988162
20
-12.625147161480545
30
0
0
ARC
5
119
100
AcDbEntity
8
0
100
AcDbCircle
10
13.700072189989637
20
-11.012091658831086
30
0
40
6.2845296686069654
210
-0
220
0
230
1
100
AcDbArc
50
345.12738720765924
51
352.14475234637393
0
ARC
5
120
100
AcDbEntity
8
0
100
AcDbCircle
10
19.857171949909358
20
-11.855292284127245
30
0
40
0.070238860120696911
210
-0
220
0
230
1
100
AcDbArc
50
-12.925523139724305
51
12.925523139722886
0
SPLINE
5
121
100
AcDbEntity
8
0
100
AcDbSpline
70
4
71
3
72
8
73
4
74
0
42
0.000000001
43
0.0000000001
44
0.0000000001
40
0
40
0
40
0
40
0
40
1
40
1
40
1
40
1
41
1
41
1
41
1
41
1
10
19.925631073057911
20
-11.839580952904676
30
0
10
19.816575971192584
20
-11.839580952904676
30
0
10
19.042100010375989
20
-12.845105798596524
30
0
10
18.762992915140366
20
-12.919041371246081
30
0
0
ARC
5
122
100
AcDbEntity
8
0
100
AcDbCircle
10
18.627315119207015
20
-12.436852237681181
30
0
40
0.50091398946066601
210
0
220
0
230
1
100
AcDbArc
50
271.7769244107555
51
285.71547591764829
0
ARC
5
123
100
AcDbEntity
8
0
100
AcDbCircle
10
18.619792634370789
20
-12.776509111695189
30
0
40
0.16265841407079468
210
0
220
0
230
1
100
AcDbArc
50
185.94304120722438
51
278.14844812199908
0
ARC
5
124
100
AcDbEntity
8
0
100
AcDbCircle
10
18.903193073894737
20
-12.638522475915526
30
0
40
0.471339716331792
210
0
220
0
230
1
100
AcDbArc
50
181.96951840717489
51
199.17687509660658
0
ARC
5
125
100
AcDbEntity
8
0
100
AcDbCircle
10
22.685586546622012
20
-13.154553048285374
30
0
40
4.2827221441477912
210
0
220
0
230
1
100
AcDbArc
50
168.75546960048635
51
173.29780017390985
0
ARC
5
126
100
AcDbEntity
8
0
100
AcDbCircle
10
20.716083131947922
20
-19.6779717857363
30
0
40
7.689306606606424
210
0
220
0
230
1
100
AcDbArc
50
106.86658499436403
51
118.04121018149259
0
SPLINE
5
127
100
AcDbEntity
8
0
100
AcDbSpline
70
4
71
3
72
8
73
4
74
0
42
0.000000001
43
0.0000000001
44
0.0000000001
40
0
40
0
40
0
40
0
40
1
40
1
40
1
40
1
41
1
41
1
41
1
41
1
10
17.101290082529079
20
-12.891315223018953
30
0
10
16.65767629407911
20
-13.991108056046219
30
0
10
15.548641646677883
20
-16.562220018733861
30
0
10
14.393397222301603
20
-16.878294724017952
30
0
0
ARC
5
128
100
AcDbEntity
8
0
100
AcDbCircle
10
14.041551855065171
20
-15.715988772609403
30
0
40
1.2143929706340821
210
0
220
0
230
1
100
AcDbArc
50
271.33896215705806
51
286.84175730179402
0
SPLINE
5
129
100
AcDbEntity
8
0
100
AcDbSpline
70
4
71
3
72
8
73
4
74
0
42
0.000000001
43
0.0000000001
44
0.0000000001
40
0
40
0
40
0
40
0
40
1
40
1
40
1
40
1
41
1
41
1
41
1
41
1
10
14.069928783476245
20
-16.930050153701572
30
0
10
13.679918285197205
20
-16.930050153701572
30
0
10
13.515411459775631
20
-16.665730172995858
30
0
10
13.515411459775631
20
-16.321929319484639
30
0
0
ARC
5
130
100
AcDbEntity
8
0
100
AcDbCircle
10
15.24997095314065
20
-16.383142858132093
30
0
40
1.7356392866423764
210
0
220
0
230
1
100
AcDbArc
50
150.51881824611783
51
177.97883987237017
0
SPLINE
5
131
100
AcDbEntity
8
0
100
AcDbSpline
70
4
71
3
72
8
73
4
74
0
42
0.000000001
43
0.0000000001
44
0.0000000001
40
0
40
0
40
0
40
0
40
1
40
1
40
1
40
1
41
1
41
1
41
1
41
1
10
13.73906678738593
20
-15.528969377367506
30
0
10
14.134622497682763
20
-14.789612945766686
30
0
10
15.069908329012144
20
-13.845084991579801
30
0
10
16.958964237385914
20
-12.846953879429218
30
0
0
SPLINE
5
132
100
AcDbEntity
8
0
100
AcDbSpline
70
4
71
3
72
8
73
4
74
0
42
0.000000001
43
0.0000000001
44
0.0000000001
40
0
40
0
40
0
40
0
40
1
40
1
40
1
40
1
41
1
41
1
41
1
41
1
10
16.958964237385914
20
-12.846953879429218
30
0
10
17.500542879941932
20
-11.495780099393455
30
0
10
17.855433981212428
20
-10.214845025236617
30
0
10
17.91273400594676
20
-9.6529339679947377
30
0
0
LINE
5
133
100
AcDbEntity
8
0
100
AcDbLine
10
17.91273400594676
20
-9.6529339679947377
30
0
11
17.91273400594676
21
-9.5697563606258296
31
0
0
ARC
5
134
100
AcDbEntity
8
0
100
AcDbCircle
10
17.568098695914401
20
-9.5433021363149102
30
0
40
0.34564913265476516
210
-0
220
0
230
1
100
AcDbArc
50
-4.3894195428525435
51
35.913747491667053
0
ARC
5
135
100
AcDbEntity
8
0
100
AcDbCircle
10
17.623872171670932
20
-9.5685966253814225
30
0
40
0.31977166019288183
210
0
220
-0
230
1
100
AcDbArc
50
45.490664986002862
51
94.881893121546739
0
LINE
5
136
100
AcDbEntity
8
0
100
AcDbLine
10
17.596658948110047
20
-9.2499850199337601
30
0
11
17.496845660618678
21
-9.2499850199337601
31
0
0
ARC
5
137
100
AcDbEntity
8
0
100
AcDbCircle
10
17.886688702671641
20
-11.365899015502128
30
0
40
2.1515272794178557
210
0
220
0
230
1
100
AcDbArc
50
100.43929320757213
51
117.57960961529176
0
SPLINE
5
138
100
AcDbEntity
8
0
100
AcDbSpline
70
4
71
3
72
8
73
4
74
0
42
0.000000001
43
0.0000000001
44
0.0000000001
40
0
40
0
40
0
40
0
40
1
40
1
40
1
40
1
41
1
41
1
41
1
41
1
10
16.890573259787065
20
-9.4588532219968808
30
0
10
16.103158970378498
20
-9.8507121095921573
30
0
10
15.269534551442259
20
-10.591916974578293
30
0
10
14.981185553694518
20
-11.17600852733873
30
0
0
ARC
5
139
100
AcDbEntity
8
0
100
AcDbCircle
10
15.607619356833521
20
-11.50578255875384
30
0
40
0.70793376915567729
210
0
220
0
230
1
100
AcDbArc
50
152.23630064126533
51
178.7415736247805
0
SPLINE
5
140
100
AcDbEntity
8
0
100
AcDbSpline
70
0
71
2
72
6
73
3
74
0
42
0.000000001
43
0.0000000001
44
0.0000000001
40
0
40
0
40
0
40
1
40
1
40
1
10
14.89985633564185
20
-11.490234975513815
30
0
10
14.89985633564185
20
-12.201865435163819
30
0
10
16.37856919884349
20
-12.248075212138868
30
0
0
LINE
5
141
100
AcDbEntity
8
0
100
AcDbLine
10
16.37856919884349
20
-12.248075212138868
30
0
11
16.409991861288628
21
-12.248075212138868
31
0
0
ARC
5
142
100
AcDbEntity
8
0
100
AcDbCircle
10
16.415793845595857
20
-12.358826810081943
30
0
40
0.11090346914702899
210
0
220
0
230
1
100
AcDbArc
50
-3.9011322837617195
51
92.998833509709996
0
ARC
5
143
100
AcDbEntity
8
0
100
AcDbCircle
10
16.360094967991234
20
-12.364564928221755
30
0
40
0.16635519270327911
210
0
220
0
230
1
100
AcDbArc
50
268.72326739055978
51
359.37755487654067
0
LINE
5
144
100
AcDbEntity
8
0
100
AcDbLine
10
16.35638835077231
20
-12.530878821592506
30
0
11
16.324965688327172
21
-12.530878821592506
31
0
0
SPLINE
5
145
100
AcDbEntity
8
0
100
AcDbSpline
70
0
71
2
72
6
73
3
74
0
42
0.000000001
43
0.0000000001
44
0.0000000001
40
0
40
0
40
0
40
1
40
1
40
1
10
16.324965688327172
20
-12.530878821592506
30
0
10
14.742743111554306
20
-12.401491657593935
30
0
10
14.742743111554306
20
-11.586351396234551
30
0
0
ARC
5
146
100
AcDbEntity
8
0
100
AcDbCircle
10
15.642168574496374
20
-11.622867777344275
30
0
40
0.9001664343208442
210
0
220
0
230
1
100
AcDbArc
50
153.17648178113674
51
177.67508684641891
0
SPLINE
5
147
100
AcDbEntity
8
0
100
AcDbSpline
70
4
71
3
72
8
73
4
74
0
42
0.000000001
43
0.0000000001
44
0.0000000001
40
0
40
0
40
0
40
0
40
1
40
1
40
1
40
1
41
1
41
1
41
1
41
1
10
14.838859444136887
20
-11.216673180434142
30
0
10
15.138298777782062
20
-10.599310531843248
30
0
10
16.031071654837948
20
-9.7656861129070105
30
0
10
16.842515401979316
20
-9.370130446679255
30
0
0
ARC
5
148
100
AcDbEntity
8
0
100
AcDbCircle
10
17.893838237505054
20
-11.402634962844813
30
0
40
2.2883081769576537
210
0
220
0
230
1
100
AcDbArc
50
100.41385731078296
51
117.35048505980006
0
ARC
5
149
100
AcDbEntity
8
0
100
AcDbCircle
10
17.540283140068382
20
-10.098340141751709
30
0
40
0.94822464468127599
210
0
220
-0
230
1
100
AcDbArc
50
86.3677201248004
51
93.632279875200254
0
ARC
5
150
100
AcDbEntity
8
0
100
AcDbCircle
10
17.628351958782012
20
-9.5595542451927127
30
0
40
0.4084944355105159
210
0
220
-0
230
1
100
AcDbArc
50
42.914531833872054
51
93.929843672168829
0
ARC
5
151
100
AcDbEntity
8
0
100
AcDbCircle
10
17.581223899064703
20
-9.5556976277707513
30
0
40
0.44176548727188542
210
0
220
0
230
1
100
AcDbArc
50
-4.2245566366564056
51
38.381517340659663
0
ARC
5
152
100
AcDbEntity
8
0
100
AcDbCircle
10
17.324391869572921
20
-9.630753560614334
30
0
40
0.69869182257394025
210
0
220
0
230
1
100
AcDbArc
50
-3.4884062359308943
51
3.4884062359308707
0
ARC
5
153
100
AcDbEntity
8
0
100
AcDbCircle
10
4.8693736389998543
20
-7.7280986164615388
30
0
40
13.295477087670193
210
0
220
0
230
1
100
AcDbArc
50
337.83829189182711
51
351.58726073774181
0
SPLINE
5
154
100
AcDbEntity
8
0
100
AcDbSpline
70
4
71
3
72
8
73
4
74
0
42
0.000000001
43
0.0000000001
44
0.0000000001
40
0
40
0
40
0
40
0
40
0.93449621919850923
40
0.93449621919850923
40
0.93449621919850923
40
0.93449621919850923
41
1
41
1
41
1
41
1
10
17.182619388719903
20
-12.74344407771984
30
0
10
17.617902715471857
20
-12.520620352313806
30
0
10
18.006374997902821
20
-12.3575213175614
30
0
10
18.524523393249744
20
-12.141013509036149
30
0
0
ARC
5
155
100
AcDbEntity
8
0
100
AcDbCircle
10
22.685586546622012
20
-13.154553048285374
30
0
40
4.2827221441478223
210
0
220
0
230
1
100
AcDbArc
50
160.57910097787484
51
166.31063626719347
0
ARC
5
156
100
AcDbEntity
8
0
100
AcDbCircle
10
18.725037559103885
20
-11.743021455028412
30
0
40
0.079480817719161531
210
0
220
-0
230
1
100
AcDbArc
50
83.946486057441845
51
170.95469846733187
0
SPLINE
5
157
100
AcDbEntity
8
0
100
AcDbSpline
70
4
71
3
72
8
73
4
74
0
42
0.000000001
43
0.0000000001
44
0.0000000001
40
0
40
0
40
0
40
0
40
1
40
1
40
1
40
1
41
1
41
1
41
1
41
1
10
18.733419391185784
20
-11.66398383565474
30
0
10
18.812900263991288
20
-11.66398383565474
30
0
10
18.918258499085987
20
-11.730525851039344
30
0
10
18.918258499085987
20
-11.802613166579896
30
0
0
LINE
5
158
100
AcDbEntity
8
0
100
AcDbLine
10
18.918258499085987
20
-11.802613166579896
30
0
11
18.91825849908599
21
-11.824793838374763
31
0
0
ARC
5
159
100
AcDbEntity
8
0
100
AcDbCircle
10
21.794341755599227
20
-12.600698124696414
30
0
40
0.077632422894313602
210
0
220
0
230
1
100
AcDbArc
50
178.94551991124001
51
213.57478459354877
0
ARC
5
160
100
AcDbEntity
8
0
100
AcDbCircle
10
22.081610079332275
20
-12.658590800315682
30
0
40
0.36967821580042648
210
0
220
0
230
1
100
AcDbArc
50
142.37669700472975
51
170.76596508477357
0
ARC
5
161
100
AcDbEntity
8
0
100
AcDbCircle
10
21.881612901159748
20
-12.514917019261137
30
0
40
0.12384220537796506
210
0
220
0
230
1
100
AcDbArc
50
97.898991231651991
51
138.53558923709292
0
SPLINE
5
162
100
AcDbEntity
8
0
100
AcDbSpline
70
4
71
3
72
8
73
4
74
0
42
0.000000001
43
0.0000000001
44
0.0000000001
40
0
40
0
40
0
40
0
40
1
40
1
40
1
40
1
41
1
41
1
41
1
41
1
10
21.864593625177363
20
-12.392249843219973
30
0
10
21.916348349755744
20
-12.392249843219973
30
0
10
21.940377631212236
20
-12.442156486965656
30
0
10
21.940377631212236
20
-12.495759644929354
30
0
0
ARC
5
163
100
AcDbEntity
8
0
100
AcDbCircle
10
21.756764835019766
20
-12.517016100031544
30
0
40
0.18483910789962799
210
0
220
0
230
1
100
AcDbArc
50
-6.6036118472114751
51
6.6036118471998559
0
ARC
5
164
100
AcDbEntity
8
0
100
AcDbCircle
10
21.75009767908945
20
-12.472048934896794
30
0
40
0.20147463378088964
210
0
220
0
230
1
100
AcDbArc
50
278.4109528937945
51
340.81043901083814
0
ARC
5
165
100
AcDbEntity
8
0
100
AcDbCircle
10
21.780793095427903
20
-12.61037198578026
30
0
40
0.06099690803087781
210
0
220
0
230
1
100
AcDbArc
50
213.04201872825755
51
268.84897926783356
0
LWPOLYLINE
5
166
100
AcDbEntity
8
0
100
AcDbPolyline
90
28
70
1
43
0.0
10
-25.000000000000018
20
-20
10
-25.000000000000014
20
-6.666666666666675
10
-28.000000000000014
20
-6.6666666666666767
10
-28.000000000000014
20
6.666666666666659
10
-25.000000000000014
20
6.666666666666659
10
-25.000000000000018
20
19.999999999999993
10
-16.800000000000004
20
19.999999999999993
10
-16.800000000000004
20
22.999999999999993
10
-5.600000000000005
20
22.999999999999993
10
-5.600000000000005
20
19.999999999999993
10
5.5999999999999961
20
19.999999999999993
10
5.5999999999999961
20
22.999999999999993
10
16.799999999999997
20
22.999999999999993
10
16.799999999999997
20
19.999999999999993
10
25.000000000000007
20
19.999999999999993
10
25
20
6.666666666666659
10
28.000000000000004
20
6.6666666666666599
10
28.000000000000004
20
-6.666666666666675
10
25
20
-6.6666666666666767
10
25.000000000000007
20
-19.999999999999996
10
16.799999999999997
20
-20
10
16.799999999999997
20
-23.000000000000004
10
5.5999999999999961
20
-23.000000000000004
10
5.5999999999999961
20
-20
10
-5.600000000000005
20
-20
10
-5.600000000000005
20
-23.000000000000004
10
-16.800000000000004
20
-23.000000000000004
10
-16.800000000000004
20
-20
0
ENDSEC
0
SECTION
2
OBJECTS
0
DICTIONARY
5
C
100
AcDbDictionary
3
ACAD_GROUP
350
D
3
ACAD_MLINESTYLE
350
17
0
DICTIONARY
5
D
100
AcDbDictionary
0
DICTIONARY
5
1A
330
C
100
AcDbDictionary
0
DICTIONARY
5
17
100
AcDbDictionary
0
ENDSEC
0
EOF
