0
SECTION
2
HEADER
9
$INSUNITS
70
4
9
$ACADVER
1
AC1014
9
$HANDSEED
5
FFFF
0
ENDSEC
0
SECTION
2
TABLES
0
TABLE
2
VPORT
5
8
100
AcDbSymbolTable
0
ENDTAB
0
TABLE
2
LTYPE
5
5
100
AcDbSymbolTable
0
LTYPE
5
14
100
AcDbSymbolTableRecord
100
AcDbLinetypeTableRecord
2
BYBLOCK
70
0
0
LTYPE
5
15
100
AcDbSymbolTableRecord
100
AcDbLinetypeTableRecord
2
BYLAYER
70
0
0
ENDTAB
0
TABLE
2
LAYER
5
2
100
AcDbSymbolTable
70
2
0
LAYER
5
50
100
AcDbSymbolTableRecord
100
AcDbLayerTableRecord
2
0
70
0
6
CONTINUOUS
0
ENDTAB
0
TABLE
2
STYLE
5
3
100
AcDbSymbolTable
70
1
0
STYLE
5
11
100
AcDbSymbolTableRecord
100
AcDbTextStyleTableRecord
2
STANDARD
70
0
0
ENDTAB
0
TABLE
2
VIEW
5
6
100
AcDbSymbolTable
70
0
0
ENDTAB
0
TABLE
2
UCS
5
7
100
AcDbSymbolTable
70
0
0
ENDTAB
0
TABLE
2
APPID
5
9
100
AcDbSymbolTable
70
2
0
APPID
5
12
100
AcDbSymbolTableRecord
100
AcDbRegAppTableRecord
2
ACAD
70
0
0
ENDTAB
0
TABLE
2
DIMSTYLE
5
A
100
AcDbSymbolTable
70
1
0
ENDTAB
0
TABLE
2
BLOCK_RECORD
5
1
100
AcDbSymbolTable
70
1
0
BLOCK_RECORD
5
1F
100
AcDbSymbolTableRecord
100
AcDbBlockTableRecord
2
*MODEL_SPACE
0
BLOCK_RECORD
5
1B
100
AcDbSymbolTableRecord
100
AcDbBlockTableRecord
2
*PAPER_SPACE
0
ENDTAB
0
ENDSEC
0
SECTION
2
BLOCKS
0
BLOCK
5
20
100
AcDbEntity
100
AcDbBlockBegin
2
*MODEL_SPACE
0
ENDBLK
5
21
100
AcDbEntity
100
AcDbBlockEnd
0
BLOCK
5
1C
100
AcDbEntity
100
AcDbBlockBegin
2
*PAPER_SPACE
0
ENDBLK
5
1D
100
AcDbEntity
100
AcDbBlockEnd
0
ENDSEC
0
SECTION
2
ENTITIES
0
LWPOLYLINE
5
100
100
AcDbEntity
8
0
100
AcDbPolyline
90
16
70
1
43
0.0
10
-25.000000745058053
20
19.999999999999993
10
-3.0322123581144922
20
20
10
-3.0322123581144922
20
23
10
2.9999996274709773
20
23
10
2.9999996274709773
20
20
10
25.000000000000007
20
19.999999999999993
10
25.000000000000007
20
-8.500000000000016
10
28.000000000000007
20
-8.500000000000016
10
28.000000000000007
20
-11.500000000000018
10
25.000000000000007
20
-11.500000000000018
10
25.000000000000007
20
-20.000000000000018
10
-25.000000745058053
20
-20.000000000000018
10
-25.000000745058053
20
-11.500000000000018
10
-28.000000745058049
20
-11.500000000000018
10
-28.000000745058049
20
-8.500000000000016
10
-25.000000745058053
20
-8.500000000000016
0
SPLINE
5
101
100
AcDbEntity
8
0
100
AcDbSpline
70
4
71
3
72
8
73
4
74
0
42
0.000000001
43
0.0000000001
44
0.0000000001
40
-1
40
-1
40
-1
40
-1
40
0
40
0
40
0
40
0
41
1
41
1
41
1
41
1
10
-4.1695017401028185
20
14.217749392029386
30
0
10
-4.3335421148586768
20
14.135725167430184
30
0
10
-4.3970435682583364
20
14.143666381673757
30
0
10
-4.4658337815253439
20
14.323581110474212
30
0
0
ARC
5
102
100
AcDbEntity
8
0
100
AcDbCircle
10
-12.799270334139772
20
11.115286536840742
30
0
40
8.9296874999999982
210
0
220
-0
230
1
100
AcDbArc
50
21.056235547609226
51
27.426951844736589
0
SPLINE
5
103
100
AcDbEntity
8
0
100
AcDbSpline
70
4
71
3
72
8
73
4
74
0
42
0.000000001
43
0.0000000001
44
0.0000000001
40
-1
40
-1
40
-1
40
-1
40
0
40
0
40
0
40
0
41
1
41
1
41
1
41
1
10
-4.8732903384813175
20
15.228455626007658
30
0
10
-4.9711848799038432
20
15.416311569051686
30
0
10
-4.8997502867031599
20
15.474520225362717
30
0
10
-4.7409986718146513
20
15.556540412740652
30
0
0
ARC
5
104
100
AcDbEntity
8
0
100
AcDbCircle
10
0.17010252550395899
20
5.729928690445516
30
0
40
10.985500121116583
210
0
220
0
230
1
100
AcDbArc
50
90.085063710203229
51
116.55476651156171
0
ARC
5
105
100
AcDbEntity
8
0
100
AcDbCircle
10
0.146120821683422
20
5.7960668416816699
30
0
40
10.919354287783307
210
-0
220
0
230
1
100
AcDbArc
50
-76.207538811972782
51
89.959742723497811
0
SPLINE
5
106
100
AcDbEntity
8
0
100
AcDbSpline
70
4
71
3
72
8
73
4
74
0
42
0.000000001
43
0.0000000001
44
0.0000000001
40
-1
40
-1
40
-1
40
-1
40
0
40
0
40
0
40
0
41
1
41
1
41
1
41
1
10
2.7493568675072466
20
-4.8084350396824487
30
0
10
2.5403357919406364
20
-4.8719344744714714
30
0
10
2.4847735341739128
20
-4.834892969293656
30
0
10
2.4847735341739128
20
-4.6073511411381389
30
0
0
ARC
5
107
100
AcDbEntity
8
0
100
AcDbCircle
10
-7.0484944400616705
20
-4.1112573911381345
30
0
40
9.5461671511332167
210
-0
220
0
230
1
100
AcDbArc
50
-2.9788801294847747
51
2.9788801294847866
0
SPLINE
5
108
100
AcDbEntity
8
0
100
AcDbSpline
70
4
71
3
72
8
73
4
74
0
42
0.000000001
43
0.0000000001
44
0.0000000001
40
-1
40
-1
40
-1
40
-1
40
0
40
0
40
0
40
0
41
1
41
1
41
1
41
1
10
2.4847735341739128
20
-3.6151636411381372
30
0
10
2.4741899586073037
20
-3.4220189382267607
30
0
10
2.5562121645958689
20
-3.3664566804600371
30
0
10
2.7228989378960398
20
-3.3161852011713
30
0
0
ARC
5
109
100
AcDbEntity
8
0
100
AcDbCircle
10
0.21530566712003152
20
5.6971647747149401
30
0
40
9.3556668281555222
210
-0
220
0
230
1
100
AcDbArc
50
285.54703510586859
51
329.95096004972231
0
SPLINE
5
110
100
AcDbEntity
8
0
100
AcDbSpline
70
4
71
3
72
8
73
4
74
0
42
0.000000001
43
0.0000000001
44
0.0000000001
40
-1
40
-1
40
-1
40
-1
40
0
40
0
40
0
40
0
41
1
41
1
41
1
41
1
10
8.3135440445295465
20
1.0123982936508846
30
0
10
11.586440604562709
20
6.5289583713181232
30
0
10
8.4061478074740865
20
13.736209824717779
30
0
10
2.1275864378960421
20
15.059126491384447
30
0
0
ARC
5
111
100
AcDbEntity
8
0
100
AcDbCircle
10
0.1373912511403641
20
5.9690491695281533
30
0
40
9.3053953488667833
210
0
220
-0
230
1
100
AcDbArc
50
77.650441919246603
51
117.5704074238816
0
ARC
5
112
100
AcDbEntity
8
0
100
AcDbCircle
10
-2.8438660532605664
20
-5.8332250293641374
30
0
40
4.7916043281555183
210
0
220
0
230
1
100
AcDbArc
50
218.31042379336341
51
257.8868553749673
0
ARC
5
113
100
AcDbEntity
8
0
100
AcDbCircle
10
-3.6830558110247336
20
-9.7420100368608491
30
0
40
0.79375000000000195
210
0
220
0
230
1
100
AcDbArc
50
257.90667743730091
51
266.20575280046131
0
LINE
5
114
100
AcDbEntity
8
0
100
AcDbLine
10
-3.7355811977037345
20
-10.534020230137566
30
0
11
-3.6667909844367252
21
-10.534020230137566
31
0
0
SPLINE
5
115
100
AcDbEntity
8
0
100
AcDbSpline
70
0
71
2
72
6
73
3
74
0
42
0.000000001
43
0.0000000001
44
0.0000000001
40
0
40
0
40
0
40
1
40
1
40
1
10
-3.6667909844367252
20
-10.534020230137566
30
0
10
-3.6535610103258054
20
-10.483748750848829
30
0
10
-3.6562053902594771
20
3.8011048506068601
30
0
0
ARC
5
116
100
AcDbEntity
8
0
100
AcDbCircle
10
-0.51861458139123628
20
3.8491240941788729
30
0
40
3.1379582424958592
210
0
220
0
230
1
100
AcDbArc
50
143.05453386212599
51
180.87681453055831
0
ARC
5
117
100
AcDbEntity
8
0
100
AcDbCircle
10
1.8077373908304106
20
2.1979375936314378
30
0
40
5.9901665051778386
210
0
220
0
230
1
100
AcDbArc
50
98.870480607595823
51
143.80658423591555
0
ARC
5
118
100
AcDbEntity
8
0
100
AcDbCircle
10
1.4903489061438466
20
5.0807887411902879
30
0
40
3.0956249495347343
210
0
220
-0
230
1
100
AcDbArc
50
62.134996309652323
51
101.29485776975481
0
ARC
5
119
100
AcDbEntity
8
0
100
AcDbCircle
10
2.088056753382161
20
6.1715313707382542
30
0
40
1.8520833333333311
210
0
220
-0
230
1
100
AcDbArc
50
0.74413505911547839
51
62.7104831838693
0
ARC
5
120
100
AcDbEntity
8
0
100
AcDbCircle
10
1.02093381728946
20
6.0317191799802004
30
0
40
2.9236458837985984
210
0
220
0
230
1
100
AcDbArc
50
-32.27588512256699
51
3.2130199375723714
0
ARC
5
121
100
AcDbEntity
8
0
100
AcDbCircle
10
-1.334357931570727
20
7.480102263001724
30
0
40
5.6885416666666755
210
0
220
0
230
1
100
AcDbArc
50
293.44599080431516
51
328.05779747280354
0
ARC
5
122
100
AcDbEntity
8
0
100
AcDbCircle
10
-1.1343311728898562
20
6.4623569071951863
30
0
40
4.6804793079694305
210
0
220
0
230
1
100
AcDbArc
50
264.8383746713161
51
296.1576651458937
0
ARC
5
123
100
AcDbEntity
8
0
100
AcDbCircle
10
-1.2915420264719544
20
4.720541195005362
30
0
40
2.9315833131472129
210
0
220
0
230
1
100
AcDbArc
50
244.91612899107571
51
264.8358325865882
0
LINE
5
124
100
AcDbEntity
8
0
100
AcDbLine
10
-2.5343706035264852
20
2.0654408485062321
30
0
11
-2.6745994472154506
21
2.1262959033615814
31
0
0
LINE
5
125
100
AcDbEntity
8
0
100
AcDbLine
10
-2.6745994472154506
20
2.1262959033615814
30
0
11
-2.6745994472154533
21
-16.394537429971756
31
0
0
LINE
5
126
100
AcDbEntity
8
0
100
AcDbLine
10
-2.6745994472154533
20
-16.394537429971756
30
0
11
-3.6218082650153383
21
-16.394537429971756
31
0
0
SPLINE
5
127
100
AcDbEntity
8
0
100
AcDbSpline
70
4
71
3
72
8
73
4
74
0
42
0.000000001
43
0.0000000001
44
0.0000000001
40
0
40
0
40
0
40
0
40
1
40
1
40
1
40
1
41
1
41
1
41
1
41
1
10
-3.6218082650153383
20
-16.394537429971756
30
0
10
-3.7249956035264886
20
-15.574329500360548
30
0
10
-4.1271634006151103
20
-14.878475051088394
30
0
10
-4.4817040983486738
20
-14.166746247771641
30
0
0
ARC
5
128
100
AcDbEntity
8
0
100
AcDbCircle
10
-25.888520498607058
20
-25.467804657945514
30
0
40
24.206728601455691
210
0
220
-0
230
1
100
AcDbArc
50
27.830410604927017
51
36.7280758473539
0
ARC
5
129
100
AcDbEntity
8
0
100
AcDbCircle
10
12.816545044752568
20
2.4940989615166487
30
0
40
23.547916666665998
210
0
220
0
230
1
100
AcDbArc
50
206.78703412699781
51
214.93858188155914
0
ARC
5
130
100
AcDbEntity
8
0
100
AcDbCircle
10
-2.3679873997130096
20
-5.2976497846404227
30
0
40
6.4822916666666366
210
0
220
0
230
1
100
AcDbArc
50
185.4595235257473
51
205.79436859260761
0
ARC
5
131
100
AcDbEntity
8
0
100
AcDbCircle
10
0.36152237576078883
20
-4.7148379503581443
30
0
40
9.2604166666666305
210
0
220
0
230
1
100
AcDbArc
50
163.42192206879963
51
187.44275634898523
0
ARC
5
132
100
AcDbEntity
8
0
100
AcDbCircle
10
-3.9211605828513463
20
-3.4009451682133509
30
0
40
4.7810207525888551
210
0
220
0
230
1
100
AcDbArc
50
144.16026228796855
51
163.86934157207244
0
ARC
5
133
100
AcDbEntity
8
0
100
AcDbCircle
10
-7.0707991504319789
20
-1.0864090122849053
30
0
40
0.87312498738371169
210
0
220
0
230
1
100
AcDbArc
50
128.50314958253909
51
146.2685364533292
0
ARC
5
134
100
AcDbEntity
8
0
100
AcDbCircle
10
-7.4938324024285468
20
-0.60848785475167633
30
0
40
0.23812499369184478
210
0
220
-0
230
1
100
AcDbArc
50
74.241655678385072
51
120.41063107989223
0
ARC
5
135
100
AcDbEntity
8
0
100
AcDbCircle
10
-7.5366529996759759
20
-0.50671146694818792
30
0
40
0.16668749873835892
210
0
220
0
230
1
100
AcDbArc
50
-6.2417185609606305
51
49.844537533663157
0
ARC
5
136
100
AcDbEntity
8
0
100
AcDbCircle
10
-9.1872611752467925
20
-0.31602589537835601
30
0
40
1.8282707929610806
210
0
220
0
230
1
100
AcDbArc
50
340.03672468440914
51
353.44188957012085
0
ARC
5
137
100
AcDbEntity
8
0
100
AcDbCircle
10
0.062367487608099292
20
-4.0668864311831037
30
0
40
8.1544582525889133
210
0
220
0
230
1
100
AcDbArc
50
157.45374988922862
51
185.75918520539139
0
ARC
5
138
100
AcDbEntity
8
0
100
AcDbCircle
10
-0.93699329028527734
20
-4.4841843897915057
30
0
40
7.125229247411097
210
0
220
0
230
1
100
AcDbArc
50
183.22610320017122
51
217.31672504135622
0
SPLINE
5
139
100
AcDbEntity
8
0
100
AcDbSpline
70
4
71
3
72
8
73
4
74
0
42
0.000000001
43
0.0000000001
44
0.0000000001
40
-1
40
-1
40
-1
40
-1
40
0
40
0
40
0
40
0
41
1
41
1
41
1
41
1
10
-6.9105811977037312
20
5.8066470017400773
30
0
10
-7.1196002546597059
20
5.8066470017400817
30
0
10
-7.3577276769924698
20
5.8198769758510061
30
0
10
-7.5376424057929263
20
5.8066470017400817
30
0
0
SPLINE
5
140
100
AcDbEntity
8
0
100
AcDbSpline
70
4
71
3
72
8
73
4
74
0
42
0.000000001
43
0.0000000001
44
0.0000000001
40
-1
40
-1
40
-1
40
-1
40
0
40
0
40
0
40
0
41
1
41
1
41
1
41
1
10
-7.5376424057929263
20
5.8066470017400817
30
0
10
-7.7175571345933802
20
5.7934170276291619
30
0
10
-7.7519542598375217
20
5.8595628609624972
30
0
10
-7.7519542598375217
20
6.0288960328069763
30
0
0
ARC
5
141
100
AcDbEntity
8
0
100
AcDbCircle
10
-0.30800141873245757
20
5.883388007809792
30
0
40
7.4453748385111389
210
0
220
0
230
1
100
AcDbArc
50
149.05514358614525
51
178.88017370489507
0
SPLINE
5
142
100
AcDbEntity
8
0
100
AcDbSpline
70
4
71
3
72
8
73
4
74
0
42
0.000000001
43
0.0000000001
44
0.0000000001
40
-1
40
-1
40
-1
40
-1
40
0
40
0
40
0
40
0
41
1
41
1
41
1
41
1
10
-6.6936209265041891
20
9.7118955483404221
30
0
10
-5.0267451190599299
20
12.445041866140309
30
0
10
-2.5714121087042985
20
13.797062860962491
30
0
10
0.62475504242892166
20
13.659478397207202
30
0
0
ARC
5
143
100
AcDbEntity
8
0
100
AcDbCircle
10
0.18066818231912418
20
5.8324625629845936
30
0
40
7.8396039446195012
210
0
220
-0
230
1
100
AcDbArc
50
7.7632457938324499
51
86.752650968522758
0
SPLINE
5
144
100
AcDbEntity
8
0
100
AcDbSpline
70
4
71
3
72
8
73
4
74
0
42
0.000000001
43
0.0000000001
44
0.0000000001
40
-1
40
-1
40
-1
40
-1
40
0
40
0
40
0
40
0
41
1
41
1
41
1
41
1
10
7.9484197712293758
20
6.8914362460739831
30
0
10
8.2897325134626527
20
4.4175824831294408
30
0
10
7.5674191252739709
20
2.2532907357183496
30
0
10
5.9084825134626513
20
0.4012074023850154
30
0
0
SPLINE
5
145
100
AcDbEntity
8
0
100
AcDbSpline
70
4
71
3
72
8
73
4
74
0
42
0.000000001
43
0.0000000001
44
0.0000000001
40
-1
40
-1
40
-1
40
-1
40
0
40
0
40
0
40
0
41
1
41
1
41
1
41
1
10
5.9084825134626513
20
0.4012074023850154
30
0
10
5.8026487764071906
20
0.28214570982927123
30
0
10
5.7338565445295462
20
0.24775060319576658
30
0
10
5.601564877862879
20
0.37739587131812247
30
0
0
SPLINE
5
146
100
AcDbEntity
8
0
100
AcDbSpline
70
4
71
3
72
8
73
4
74
0
42
0.000000001
43
0.0000000001
44
0.0000000001
40
-1
40
-1
40
-1
40
-1
40
0
40
0
40
0
40
0
41
1
41
1
41
1
41
1
10
5.601564877862879
20
0.37739587131812247
30
0
10
5.3607950942070772
20
0.6075820794073139
30
0
10
5.1120861149183394
20
0.81660315497392499
30
0
10
4.8475027815850069
20
1.0256242305405339
30
0
0
SPLINE
5
147
100
AcDbEntity
8
0
100
AcDbSpline
70
4
71
3
72
8
73
4
74
0
42
0.000000001
43
0.0000000001
44
0.0000000001
40
-1
40
-1
40
-1
40
-1
40
0
40
0
40
0
40
0
41
1
41
1
41
1
41
1
10
4.8475027815850069
20
1.0256242305405339
30
0
10
4.7257946904849488
20
1.1261671891180081
30
0
10
4.6993347422631073
20
1.1870202253627182
30
0
10
4.826335630451787
20
1.3219582905736971
30
0
0
ARC
5
148
100
AcDbEntity
8
0
100
AcDbCircle
10
0.23255018169870967
20
5.7784820254587199
30
0
40
6.4002709746360784
210
-0
220
0
230
1
100
AcDbArc
50
-44.131088915372878
51
2.7401704455661648
0
ARC
5
149
100
AcDbEntity
8
0
100
AcDbCircle
10
0.10096808797652068
20
5.7607030128021375
30
0
40
6.5325626413027473
210
0
220
-0
230
1
100
AcDbArc
50
2.8407554828948278
51
80.25370888386135
0
ARC
5
150
100
AcDbEntity
8
0
100
AcDbCircle
10
0.055055452412611228
20
4.3134028813998793
30
0
40
7.9692502220471697
210
0
220
-0
230
1
100
AcDbArc
50
81.690035468143492
51
88.833484745227835
0
ARC
5
151
100
AcDbEntity
8
0
100
AcDbCircle
10
0.15120282964617759
20
5.7805250466692115
30
0
40
6.5008124192555776
210
0
220
-0
230
1
100
AcDbArc
50
89.417482646739444
51
175.09991837836847
0
SPLINE
5
152
100
AcDbEntity
8
0
100
AcDbSpline
70
4
71
3
72
8
73
4
74
0
42
0.000000001
43
0.0000000001
44
0.0000000001
40
-1
40
-1
40
-1
40
-1
40
0
40
0
40
0
40
0
41
1
41
1
41
1
41
1
10
-6.3258502546597057
20
6.3358136684067468
30
0
10
-6.3814145310370662
20
5.8066470017400773
30
0
10
-6.3814145310370662
20
5.8066470017400773
30
0
10
-6.9105811977037312
20
5.8066470017400773
30
0
0
ENDSEC
0
SECTION
2
OBJECTS
0
DICTIONARY
5
C
100
AcDbDictionary
3
ACAD_GROUP
350
D
3
ACAD_MLINESTYLE
350
17
0
DICTIONARY
5
D
100
AcDbDictionary
0
DICTIONARY
5
1A
330
C
100
AcDbDictionary
0
DICTIONARY
5
17
100
AcDbDictionary
0
ENDSEC
0
EOF
