0
SECTION
2
HEADER
9
$INSUNITS
70
4
9
$ACADVER
1
AC1014
9
$HANDSEED
5
FFFF
0
ENDSEC
0
SECTION
2
TABLES
0
TABLE
2
VPORT
5
8
100
AcDbSymbolTable
0
ENDTAB
0
TABLE
2
LTYPE
5
5
100
AcDbSymbolTable
0
LTYPE
5
14
100
AcDbSymbolTableRecord
100
AcDbLinetypeTableRecord
2
BYBLOCK
70
0
0
LTYPE
5
15
100
AcDbSymbolTableRecord
100
AcDbLinetypeTableRecord
2
BYLAYER
70
0
0
ENDTAB
0
TABLE
2
LAYER
5
2
100
AcDbSymbolTable
70
2
0
LAYER
5
50
100
AcDbSymbolTableRecord
100
AcDbLayerTableRecord
2
0
70
0
6
CONTINUOUS
0
ENDTAB
0
TABLE
2
STYLE
5
3
100
AcDbSymbolTable
70
1
0
STYLE
5
11
100
AcDbSymbolTableRecord
100
AcDbTextStyleTableRecord
2
STANDARD
70
0
0
ENDTAB
0
TABLE
2
VIEW
5
6
100
AcDbSymbolTable
70
0
0
ENDTAB
0
TABLE
2
UCS
5
7
100
AcDbSymbolTable
70
0
0
ENDTAB
0
TABLE
2
APPID
5
9
100
AcDbSymbolTable
70
2
0
APPID
5
12
100
AcDbSymbolTableRecord
100
AcDbRegAppTableRecord
2
ACAD
70
0
0
ENDTAB
0
TABLE
2
DIMSTYLE
5
A
100
AcDbSymbolTable
70
1
0
ENDTAB
0
TABLE
2
BLOCK_RECORD
5
1
100
AcDbSymbolTable
70
1
0
BLOCK_RECORD
5
1F
100
AcDbSymbolTableRecord
100
AcDbBlockTableRecord
2
*MODEL_SPACE
0
BLOCK_RECORD
5
1B
100
AcDbSymbolTableRecord
100
AcDbBlockTableRecord
2
*PAPER_SPACE
0
ENDTAB
0
ENDSEC
0
SECTION
2
BLOCKS
0
BLOCK
5
20
100
AcDbEntity
100
AcDbBlockBegin
2
*MODEL_SPACE
0
ENDBLK
5
21
100
AcDbEntity
100
AcDbBlockEnd
0
BLOCK
5
1C
100
AcDbEntity
100
AcDbBlockBegin
2
*PAPER_SPACE
0
ENDBLK
5
1D
100
AcDbEntity
100
AcDbBlockEnd
0
ENDSEC
0
SECTION
2
ENTITIES
0
LWPOLYLINE
5
100
100
AcDbEntity
8
0
100
AcDbPolyline
90
28
70
1
43
0.0
10
-252.00000311434269
20
14.666667596046443
10
-255.00000311434269
20
14.666667596046443
10
-255.00000311434269
20
-13.666665737286891
10
-252.00000311434269
20
-13.666665737286889
10
-252.00000375509262
20
-41.999999403953552
10
-255.00000311434269
20
-41.999999403953552
10
-255.00000311434269
20
-44.999999403953552
10
-238.66666978100932
20
-44.999999403953552
10
-238.66666978100932
20
-41.999999403953552
10
-225.333336447676
20
-41.999999403953552
10
-225.333336447676
20
-44.999999403953552
10
-209.00000311434272
20
-44.999999403953552
10
-209.00000311434272
20
-41.999999403953552
10
-212.00000375509262
20
-41.999999403953552
10
-212.00000375509262
20
-13.666665737286891
10
-209.00000375509262
20
-13.666665737286891
10
-209.00000375509262
20
14.666667596046443
10
-212.00000375509262
20
14.666667596046441
10
-212.00000375509262
20
43.000000596046448
10
-209.00000375509265
20
43.000000596046455
10
-209.00000375509265
20
46.000000596046455
10
-225.33333708842594
20
46.000000596046455
10
-225.33333708842594
20
43.000000596046455
10
-238.66667042175922
20
43.000000596046455
10
-238.66667042175922
20
46.000000596046455
10
-255.00000375509262
20
46.000000596046455
10
-255.00000375509262
20
43.000000596046455
10
-252.00000375509262
20
43.000000596046448
0
LWPOLYLINE
5
101
100
AcDbEntity
8
0
100
AcDbPolyline
90
20
70
1
43
0.0
10
-190
20
-18.66666756073635
10
-187.00000278651714
20
-18.66666756073635
10
-187.00000278651714
20
-57.000000894069672
10
-213.66666945318383
20
-57.000000894069672
10
-213.66666945318383
20
-54.000000894069665
10
-240.33333611985051
20
-54.000000894069665
10
-240.33333611985051
20
-57.000000894069672
10
-267.00000278651714
20
-57.000000894069672
10
-267.00000278651714
20
-18.66666756073635
10
-264.00000278651714
20
-18.66666756073635
10
-264.00000278651714
20
19.666665772596986
10
-267.00000278651714
20
19.666665772596986
10
-267.00000278651714
20
57.999999105930328
10
-240.33333611985046
20
57.999999105930328
10
-240.33333611985046
20
54.999999105930328
10
-213.66666945318377
20
54.999999105930328
10
-213.66666945318377
20
57.999999105930328
10
-187.00000278651714
20
57.999999105930328
10
-187.00000278651714
20
19.666665772596986
10
-190
20
19.666665772596986
0
ENDSEC
0
SECTION
2
OBJECTS
0
DICTIONARY
5
C
100
AcDbDictionary
3
ACAD_GROUP
350
D
3
ACAD_MLINESTYLE
350
17
0
DICTIONARY
5
D
100
AcDbDictionary
0
DICTIONARY
5
1A
330
C
100
AcDbDictionary
0
DICTIONARY
5
17
100
AcDbDictionary
0
ENDSEC
0
EOF
