0
SECTION
2
HEADER
9
$INSUNITS
70
4
9
$ACADVER
1
AC1014
9
$HANDSEED
5
FFFF
0
ENDSEC
0
SECTION
2
TABLES
0
TABLE
2
VPORT
5
8
100
AcDbSymbolTable
0
ENDTAB
0
TABLE
2
LTYPE
5
5
100
AcDbSymbolTable
0
LTYPE
5
14
100
AcDbSymbolTableRecord
100
AcDbLinetypeTableRecord
2
BYBLOCK
70
0
0
LTYPE
5
15
100
AcDbSymbolTableRecord
100
AcDbLinetypeTableRecord
2
BYLAYER
70
0
0
ENDTAB
0
TABLE
2
LAYER
5
2
100
AcDbSymbolTable
70
2
0
LAYER
5
50
100
AcDbSymbolTableRecord
100
AcDbLayerTableRecord
2
0
70
0
6
CONTINUOUS
0
ENDTAB
0
TABLE
2
STYLE
5
3
100
AcDbSymbolTable
70
1
0
STYLE
5
11
100
AcDbSymbolTableRecord
100
AcDbTextStyleTableRecord
2
STANDARD
70
0
0
ENDTAB
0
TABLE
2
VIEW
5
6
100
AcDbSymbolTable
70
0
0
ENDTAB
0
TABLE
2
UCS
5
7
100
AcDbSymbolTable
70
0
0
ENDTAB
0
TABLE
2
APPID
5
9
100
AcDbSymbolTable
70
2
0
APPID
5
12
100
AcDbSymbolTableRecord
100
AcDbRegAppTableRecord
2
ACAD
70
0
0
ENDTAB
0
TABLE
2
DIMSTYLE
5
A
100
AcDbSymbolTable
70
1
0
ENDTAB
0
TABLE
2
BLOCK_RECORD
5
1
100
AcDbSymbolTable
70
1
0
BLOCK_RECORD
5
1F
100
AcDbSymbolTableRecord
100
AcDbBlockTableRecord
2
*MODEL_SPACE
0
BLOCK_RECORD
5
1B
100
AcDbSymbolTableRecord
100
AcDbBlockTableRecord
2
*PAPER_SPACE
0
ENDTAB
0
ENDSEC
0
SECTION
2
BLOCKS
0
BLOCK
5
20
100
AcDbEntity
100
AcDbBlockBegin
2
*MODEL_SPACE
0
ENDBLK
5
21
100
AcDbEntity
100
AcDbBlockEnd
0
BLOCK
5
1C
100
AcDbEntity
100
AcDbBlockBegin
2
*PAPER_SPACE
0
ENDBLK
5
1D
100
AcDbEntity
100
AcDbBlockEnd
0
ENDSEC
0
SECTION
2
ENTITIES
0
LWPOLYLINE
5
100
100
AcDbEntity
8
0
100
AcDbPolyline
90
44
70
1
43
0.0
10
-146.99999999999994
20
36.666666666666657
10
-149.99999999999997
20
36.666666666666657
10
-149.99999999999997
20
55
10
-116.66666666666671
20
55
10
-116.66666666666671
20
52
10
-83.333333333333371
20
52
10
-83.333333333333371
20
55
10
-50.000000000000014
20
55
10
-50.000000000000014
20
52
10
-16.666666666666679
20
52
10
-16.666666666666679
20
55
10
16.666666666666679
20
55
10
16.666666666666679
20
52
10
50
20
52
10
50
20
55
10
83.333333333333357
20
55
10
83.3333333333334
20
52
10
116.66666666666671
20
52
10
116.66666666666669
20
55
10
150.00000000000003
20
55
10
150.00000000000003
20
36.666666666666657
10
147.00000000000003
20
36.666666666666657
10
147.00000000000003
20
18.333333333333321
10
150.00000000000003
20
18.333333333333325
10
150.00000000000003
20
-8.3817397467100818e-11
10
116.66666674019299
20
-7.4509287628643506e-11
10
116.66666674019297
20
2.9995290481469672
10
83.333333406859651
20
2.9995290481469672
10
83.333333406859651
20
-6.5196736898087693e-11
10
49.999999985158183
20
-5.588418616753188e-11
10
49.999999985158183
20
3.000450773584904
10
16.666666651824826
20
3.000450773584904
10
16.666666651824826
20
-4.6571635436976067e-11
10
-16.666666836701456
20
-3.7259084706420253e-11
10
-16.666666836701456
20
3.0004544348089812
10
-50.000000170034795
20
3.0004544348089812
10
-50.000000170034795
20
-2.794653397586444e-11
10
-83.3333333333333
20
-1.8633983245308627e-11
10
-83.3333333333333
20
2.9999069298364405
10
-116.66666666666664
20
2.9999069298364405
10
-116.66666666666664
20
-9.3214325147528143e-12
10
-149.99999999999997
20
-8.8817841970012523e-15
10
-149.99999999999997
20
18.333333333333325
10
-146.99999999999994
20
18.333333333333325
0
LWPOLYLINE
5
101
100
AcDbEntity
8
0
100
AcDbPolyline
90
4
70
1
43
0.0
10
17.999295515919282
20
23.450185599039692
10
17.999295515919282
20
39.450185599039685
10
-18.000704484080718
20
39.450185599039685
10
-18.000704484080718
20
23.450185599039699
0
ENDSEC
0
SECTION
2
OBJECTS
0
DICTIONARY
5
C
100
AcDbDictionary
3
ACAD_GROUP
350
D
3
ACAD_MLINESTYLE
350
17
0
DICTIONARY
5
D
100
AcDbDictionary
0
DICTIONARY
5
1A
330
C
100
AcDbDictionary
0
DICTIONARY
5
17
100
AcDbDictionary
0
ENDSEC
0
EOF
