0
SECTION
2
HEADER
9
$INSUNITS
70
4
9
$ACADVER
1
AC1014
9
$HANDSEED
5
FFFF
0
ENDSEC
0
SECTION
2
TABLES
0
TABLE
2
VPORT
5
8
100
AcDbSymbolTable
0
ENDTAB
0
TABLE
2
LTYPE
5
5
100
AcDbSymbolTable
0
LTYPE
5
14
100
AcDbSymbolTableRecord
100
AcDbLinetypeTableRecord
2
BYBLOCK
70
0
0
LTYPE
5
15
100
AcDbSymbolTableRecord
100
AcDbLinetypeTableRecord
2
BYLAYER
70
0
0
ENDTAB
0
TABLE
2
LAYER
5
2
100
AcDbSymbolTable
70
2
0
LAYER
5
50
100
AcDbSymbolTableRecord
100
AcDbLayerTableRecord
2
0
70
0
6
CONTINUOUS
0
ENDTAB
0
TABLE
2
STYLE
5
3
100
AcDbSymbolTable
70
1
0
STYLE
5
11
100
AcDbSymbolTableRecord
100
AcDbTextStyleTableRecord
2
STANDARD
70
0
0
ENDTAB
0
TABLE
2
VIEW
5
6
100
AcDbSymbolTable
70
0
0
ENDTAB
0
TABLE
2
UCS
5
7
100
AcDbSymbolTable
70
0
0
ENDTAB
0
TABLE
2
APPID
5
9
100
AcDbSymbolTable
70
2
0
APPID
5
12
100
AcDbSymbolTableRecord
100
AcDbRegAppTableRecord
2
ACAD
70
0
0
ENDTAB
0
TABLE
2
DIMSTYLE
5
A
100
AcDbSymbolTable
70
1
0
ENDTAB
0
TABLE
2
BLOCK_RECORD
5
1
100
AcDbSymbolTable
70
1
0
BLOCK_RECORD
5
1F
100
AcDbSymbolTableRecord
100
AcDbBlockTableRecord
2
*MODEL_SPACE
0
BLOCK_RECORD
5
1B
100
AcDbSymbolTableRecord
100
AcDbBlockTableRecord
2
*PAPER_SPACE
0
ENDTAB
0
ENDSEC
0
SECTION
2
BLOCKS
0
BLOCK
5
20
100
AcDbEntity
100
AcDbBlockBegin
2
*MODEL_SPACE
0
ENDBLK
5
21
100
AcDbEntity
100
AcDbBlockEnd
0
BLOCK
5
1C
100
AcDbEntity
100
AcDbBlockBegin
2
*PAPER_SPACE
0
ENDBLK
5
1D
100
AcDbEntity
100
AcDbBlockEnd
0
ENDSEC
0
SECTION
2
ENTITIES
0
LWPOLYLINE
5
100
100
AcDbEntity
8
0
100
AcDbPolyline
90
4
70
1
43
0.0
10
-160
20
9
10
-160
20
15
10
-171
20
15
10
-171
20
9
0
LWPOLYLINE
5
101
100
AcDbEntity
8
0
100
AcDbPolyline
90
52
70
1
43
0.0
10
86.363636363636317
20
0
10
86.363636363636317
20
2.9999999999999982
10
51.818181818181763
20
2.9999999999999982
10
51.818181818181763
20
0
10
17.272727272727217
20
0
10
17.272727272727217
20
2.9999999999999982
10
-17.272727272727334
20
2.9999999999999982
10
-17.272727272727334
20
0
10
-51.818181818181884
20
0
10
-51.818181818181884
20
2.9999999999999982
10
-86.363636363636431
20
2.9999999999999982
10
-86.363636363636431
20
0
10
-120.90909090909099
20
0
10
-120.90909090909099
20
2.9999999999999982
10
-155.45454545454555
20
2.9999999999999982
10
-155.45454545454555
20
0
10
-190
20
0
10
-190
20
18.333333333333332
10
-187
20
18.333333333333332
10
-187
20
36.666666666666671
10
-190
20
36.666666666666671
10
-190
20
55
10
-155.45454545454555
20
55
10
-155.45454545454555
20
52
10
-120.90909090909099
20
52
10
-120.90909090909099
20
55
10
-86.363636363636431
20
55
10
-86.363636363636431
20
52
10
-51.818181818181884
20
52
10
-51.818181818181884
20
55
10
-17.272727272727334
20
55
10
-17.272727272727334
20
52
10
17.272727272727217
20
52
10
17.272727272727217
20
55
10
51.818181818181763
20
55
10
51.818181818181763
20
52
10
86.363636363636317
20
52
10
86.363636363636317
20
55
10
120.90909090909086
20
55
10
120.90909090909086
20
52
10
155.45454545454541
20
52
10
155.45454545454541
20
55
10
190
20
55
10
190
20
36.666666666666664
10
187
20
36.666666666666664
10
187
20
18.333333333333332
10
190
20
18.333333333333332
10
190
20
0
10
155.45454545454541
20
0
10
155.45454545454541
20
2.9999999999999982
10
120.90909090909086
20
2.9999999999999982
10
120.90909090909086
20
0
0
ENDSEC
0
SECTION
2
OBJECTS
0
DICTIONARY
5
C
100
AcDbDictionary
3
ACAD_GROUP
350
D
3
ACAD_MLINESTYLE
350
17
0
DICTIONARY
5
D
100
AcDbDictionary
0
DICTIONARY
5
1A
330
C
100
AcDbDictionary
0
DICTIONARY
5
17
100
AcDbDictionary
0
ENDSEC
0
EOF
