0
SECTION
2
HEADER
9
$INSUNITS
70
4
9
$ACADVER
1
AC1014
9
$HANDSEED
5
FFFF
0
ENDSEC
0
SECTION
2
TABLES
0
TABLE
2
VPORT
5
8
100
AcDbSymbolTable
0
ENDTAB
0
TABLE
2
LTYPE
5
5
100
AcDbSymbolTable
0
LTYPE
5
14
100
AcDbSymbolTableRecord
100
AcDbLinetypeTableRecord
2
BYBLOCK
70
0
0
LTYPE
5
15
100
AcDbSymbolTableRecord
100
AcDbLinetypeTableRecord
2
BYLAYER
70
0
0
ENDTAB
0
TABLE
2
LAYER
5
2
100
AcDbSymbolTable
70
2
0
LAYER
5
50
100
AcDbSymbolTableRecord
100
AcDbLayerTableRecord
2
0
70
0
6
CONTINUOUS
0
ENDTAB
0
TABLE
2
STYLE
5
3
100
AcDbSymbolTable
70
1
0
STYLE
5
11
100
AcDbSymbolTableRecord
100
AcDbTextStyleTableRecord
2
STANDARD
70
0
0
ENDTAB
0
TABLE
2
VIEW
5
6
100
AcDbSymbolTable
70
0
0
ENDTAB
0
TABLE
2
UCS
5
7
100
AcDbSymbolTable
70
0
0
ENDTAB
0
TABLE
2
APPID
5
9
100
AcDbSymbolTable
70
2
0
APPID
5
12
100
AcDbSymbolTableRecord
100
AcDbRegAppTableRecord
2
ACAD
70
0
0
ENDTAB
0
TABLE
2
DIMSTYLE
5
A
100
AcDbSymbolTable
70
1
0
ENDTAB
0
TABLE
2
BLOCK_RECORD
5
1
100
AcDbSymbolTable
70
1
0
BLOCK_RECORD
5
1F
100
AcDbSymbolTableRecord
100
AcDbBlockTableRecord
2
*MODEL_SPACE
0
BLOCK_RECORD
5
1B
100
AcDbSymbolTableRecord
100
AcDbBlockTableRecord
2
*PAPER_SPACE
0
ENDTAB
0
ENDSEC
0
SECTION
2
BLOCKS
0
BLOCK
5
20
100
AcDbEntity
100
AcDbBlockBegin
2
*MODEL_SPACE
0
ENDBLK
5
21
100
AcDbEntity
100
AcDbBlockEnd
0
BLOCK
5
1C
100
AcDbEntity
100
AcDbBlockBegin
2
*PAPER_SPACE
0
ENDBLK
5
1D
100
AcDbEntity
100
AcDbBlockEnd
0
ENDSEC
0
SECTION
2
ENTITIES
0
LWPOLYLINE
5
100
100
AcDbEntity
8
0
100
AcDbPolyline
90
68
70
1
43
0.0
10
-150.00000000000003
20
-116.66666666666669
10
-150
20
-150.00000000000003
10
-116.66666674019295
20
-150.00000000000003
10
-116.66666674019295
20
-147.00000000000003
10
-83.333333406859623
20
-147.00000000000003
10
-83.333333406859623
20
-150.00000000000003
10
-49.999999985158148
20
-150.00000000000003
10
-49.999999985158141
20
-147.00000000000003
10
-16.666666651824805
20
-147.00000000000003
10
-16.666666651824805
20
-150.00000000000003
10
16.666666836701509
20
-150.00000000000003
10
16.666666836701491
20
-147.00000000000003
10
50.000000170034831
20
-147.00000000000003
10
50.000000170034831
20
-150.00000000000003
10
83.333333333333357
20
-150.00000000000003
10
83.333333333333343
20
-147.00000000000003
10
116.66666666666669
20
-147.00000000000003
10
116.66666666666669
20
-150.00000000000003
10
150
20
-150.00000000000003
10
150
20
-116.66666666666669
10
147
20
-116.66666666666669
10
147
20
-83.333333333333343
10
150
20
-83.333333333333343
10
149.99999999999997
20
-50.000000000000007
10
146.99999999999997
20
-50.000000000000007
10
146.99999999999997
20
-16.666666666666675
10
149.99999999999997
20
-16.666666666666679
10
149.99999999999997
20
16.666666666666661
10
146.99999999999997
20
16.666666666666661
10
146.99999999999997
20
50
10
149.99999999999997
20
50.000000000000014
10
149.99999999999997
20
83.333333333333343
10
146.99999999999994
20
83.333333333333343
10
146.99999999999994
20
116.66666666666669
10
149.99999999999997
20
116.66666666666666
10
149.99999999999997
20
150.00000000000003
10
116.66666666666664
20
150.00000000000003
10
116.66666666666664
20
147
10
83.3333333333333
20
147
10
83.3333333333333
20
150.00000000000003
10
50.000000170034795
20
150.00000000000003
10
50.000000170034795
20
147
10
16.666666836701456
20
147
10
16.666666836701456
20
150.00000000000003
10
-16.666666651824841
20
150.00000000000003
10
-16.666666651824826
20
147
10
-49.999999985158183
20
147
10
-49.999999985158176
20
150.00000000000003
10
-83.333333406859666
20
150.00000000000003
10
-83.333333406859651
20
147
10
-116.66666674019299
20
147
10
-116.66666674019298
20
150.00000000000003
10
-150.00000000000003
20
150.00000000000003
10
-150.00000000000006
20
116.66666666666669
10
-147.00000000000006
20
116.66666666666666
10
-147.00000000000006
20
83.333333333333343
10
-150.00000000000006
20
83.333333333333343
10
-150.00000000000006
20
50
10
-147.00000000000006
20
50.000000000000014
10
-147.00000000000006
20
16.666666666666661
10
-150.00000000000006
20
16.666666666666661
10
-150.00000000000006
20
-16.666666666666675
10
-147.00000000000006
20
-16.666666666666679
10
-147.00000000000006
20
-50.000000000000007
10
-150.00000000000006
20
-50.000000000000007
10
-150.00000000000003
20
-83.333333333333343
10
-147.00000000000003
20
-83.333333333333343
10
-147.00000000000003
20
-116.66666666666669
0
LWPOLYLINE
5
101
100
AcDbEntity
8
0
100
AcDbPolyline
90
84
70
1
43
0.0
10
187.00000000000003
20
-186.99999999999994
10
155.45454545454555
20
-186.99999999999994
10
155.45454545454555
20
-190
10
120.90909090909099
20
-190
10
120.90909090909099
20
-186.99999999999994
10
86.363636363636417
20
-186.99999999999994
10
86.363636363636431
20
-190
10
51.818181818181884
20
-190
10
51.818181818181884
20
-186.99999999999994
10
17.272727272727334
20
-186.99999999999994
10
17.272727272727334
20
-190
10
-17.272727272727217
20
-190
10
-17.272727272727217
20
-186.99999999999994
10
-51.818181818181763
20
-186.99999999999994
10
-51.818181818181763
20
-190
10
-86.363636363636317
20
-190
10
-86.363636363636317
20
-186.99999999999994
10
-120.90909090909086
20
-186.99999999999994
10
-120.90909090909086
20
-190
10
-155.45454545454541
20
-190
10
-155.45454545454541
20
-186.99999999999994
10
-187.00000000000003
20
-186.99999999999994
10
-187.00000000000003
20
-155.45454545454552
10
-190.00000000000003
20
-155.45454545454552
10
-190.00000000000003
20
-120.90909090909096
10
-187.00000000000003
20
-120.90909090909096
10
-187.00000000000003
20
-86.363636363636417
10
-190.00000000000003
20
-86.363636363636417
10
-190.00000000000003
20
-51.81818181818187
10
-187.00000000000003
20
-51.81818181818187
10
-187.00000000000003
20
-17.27272727272732
10
-190.00000000000003
20
-17.27272727272732
10
-190.00000000000003
20
17.272727272727231
10
-187.00000000000003
20
17.272727272727231
10
-187.00000000000003
20
51.818181818181799
10
-190.00000000000003
20
51.818181818181785
10
-190.00000000000003
20
86.363636363636331
10
-187.00000000000003
20
86.363636363636331
10
-187.00000000000003
20
120.90909090909086
10
-190.00000000000003
20
120.90909090909088
10
-190.00000000000003
20
155.45454545454544
10
-187.00000000000003
20
155.45454545454544
10
-187.00000000000003
20
186.99999999999994
10
-155.45454545454541
20
186.99999999999994
10
-155.45454545454541
20
190
10
-120.90909090909086
20
190
10
-120.90909090909086
20
186.99999999999994
10
-86.363636363636317
20
186.99999999999994
10
-86.363636363636317
20
190
10
-51.818181818181763
20
190
10
-51.818181818181763
20
186.99999999999994
10
-17.272727272727217
20
186.99999999999994
10
-17.272727272727217
20
190
10
17.272727272727334
20
190
10
17.272727272727334
20
186.99999999999994
10
51.818181818181884
20
186.99999999999994
10
51.818181818181884
20
190
10
86.363636363636417
20
190
10
86.363636363636431
20
186.99999999999994
10
120.90909090909099
20
186.99999999999994
10
120.90909090909099
20
190
10
155.45454545454555
20
190
10
155.45454545454555
20
186.99999999999994
10
187.00000000000003
20
186.99999999999994
10
187
20
155.45454545454544
10
190
20
155.45454545454544
10
190
20
120.90909090909086
10
187
20
120.90909090909088
10
187
20
86.363636363636331
10
190
20
86.363636363636331
10
190
20
51.818181818181799
10
187
20
51.818181818181785
10
187
20
17.272727272727231
10
190
20
17.272727272727231
10
190
20
-17.27272727272732
10
187
20
-17.27272727272732
10
187
20
-51.81818181818187
10
190
20
-51.81818181818187
10
190
20
-86.363636363636417
10
187
20
-86.363636363636417
10
187
20
-120.90909090909096
10
190
20
-120.90909090909096
10
190
20
-155.45454545454552
10
187
20
-155.45454545454552
0
ENDSEC
0
SECTION
2
OBJECTS
0
DICTIONARY
5
C
100
AcDbDictionary
3
ACAD_GROUP
350
D
3
ACAD_MLINESTYLE
350
17
0
DICTIONARY
5
D
100
AcDbDictionary
0
DICTIONARY
5
1A
330
C
100
AcDbDictionary
0
DICTIONARY
5
17
100
AcDbDictionary
0
ENDSEC
0
EOF
