<?xml version="1.0" encoding="utf-8"?>
<!-- Generator: Adobe Illustrator 26.0.3, SVG Export Plug-In . SVG Version: 6.00 Build 0)  -->
<svg version="1.1" id="Layer_1" xmlns="http://www.w3.org/2000/svg" xmlns:xlink="http://www.w3.org/1999/xlink" x="0px" y="0px"
	 viewBox="0 0 3352.4 1083.9" style="enable-background:new 0 0 3352.4 1083.9;" xml:space="preserve">
<style type="text/css">
	.st0{fill:none;stroke:#1D1D1B;stroke-miterlimit:10;}
	.st1{fill:none;stroke:#000000;stroke-width:0.71;stroke-linecap:round;stroke-linejoin:round;}
</style>
<polygon class="st0" points="296.3,677.5 296.3,686 198.4,686 198.4,677.5 100.4,677.5 100.4,686 2.5,686 2.5,634.1 11,634.1 
	11,582.1 2.5,582.1 2.5,530.1 100.4,530.1 100.4,538.6 198.4,538.6 198.4,530.1 296.3,530.1 296.3,538.6 394.2,538.6 394.2,530.1 
	492.1,530.1 492.1,538.6 590.1,538.6 590.1,530.1 688,530.1 688,538.6 785.9,538.6 785.9,530.1 883.8,530.1 883.8,538.6 
	981.8,538.6 981.8,530.1 1079.7,530.1 1079.7,582.1 1071.2,582.1 1071.2,634.1 1079.7,634.1 1079.7,686 981.8,686 981.8,677.5 
	883.8,677.5 883.8,686 785.9,686 785.9,677.5 688,677.5 688,686 590.1,686 590.1,677.5 492.1,677.5 492.1,686 394.2,686 
	394.2,677.5 "/>
<g id="LWPOLYLINE">
	<polygon class="st1" points="3164.8,910.5 3139.6,955.9 3064.4,914 3068.6,906.6 2986,860.6 2981.9,868.1 2899.3,822.1 
		2903.4,814.7 2820.9,768.7 2816.7,776.1 2734.2,730.2 2738.3,722.7 2655.8,676.8 2651.6,684.2 2569.1,638.3 2573.2,630.8 
		2490.7,584.9 2486.5,592.3 2411.4,550.5 2436.7,505.1 2429.2,500.9 2454.5,455.5 2461.9,459.7 2487.2,414.3 2562.4,456.1 
		2558.2,463.5 2640.8,509.5 2644.9,502 2727.5,548 2723.3,555.4 2805.9,601.4 2810,594 2892.6,639.9 2888.4,647.4 2971,693.3 
		2975.1,685.9 3057.7,731.9 3053.6,739.3 3136.1,785.2 3140.3,777.8 3215.4,819.6 3190,865.2 3197.5,869.3 3172.3,914.6 	"/>
</g>
<g id="LWPOLYLINE-2">
	<polygon class="st1" points="1332.9,183.1 1325.7,178.7 1353.1,134.5 1433.4,184.2 1428.9,191.4 1509.3,241.1 1513.8,233.9 
		1594.1,283.6 1589.6,290.8 1670,340.5 1674.5,333.3 1754.8,383 1750.3,390.2 1830.7,440 1835.2,432.7 1915.5,482.4 1911.1,489.7 
		1991.4,539.4 1995.9,532.2 2076.2,581.9 2048.9,626.1 2041.7,621.6 2014.3,665.8 2021.6,670.3 1994.2,714.4 1913.9,664.7 
		1918.3,657.5 1838,607.8 1833.5,615 1753.2,565.3 1757.6,558.1 1677.3,508.4 1672.8,515.6 1592.4,465.9 1596.9,458.7 1516.6,408.9 
		1512.1,416.2 1431.7,366.5 1436.2,359.2 1355.8,309.5 1351.4,316.8 1271,267 1298.4,222.8 1305.6,227.3 	"/>
</g>
<g id="LWPOLYLINE-3">
	
		<rect x="1663.3" y="366.1" transform="matrix(0.529 -0.8486 0.8486 0.529 440.0323 1627.2352)" class="st1" width="45.4" height="102.2"/>
</g>
<g id="LWPOLYLINE-4">
	<polygon class="st1" points="1325.8,408.2 1318.6,403.7 1345.9,359.5 1426.3,409.2 1421.8,416.4 1502.2,466.1 1506.7,458.9 
		1587,508.6 1582.5,515.9 1662.9,565.6 1667.4,558.3 1747.7,608 1743.2,615.3 1823.6,665 1828.1,657.8 1908.4,707.5 1903.9,714.7 
		1984.3,764.4 1988.8,757.2 2069.1,806.9 2041.8,851.1 2034.6,846.6 2007.2,890.8 2014.4,895.3 1987.1,939.5 1906.8,889.8 
		1911.2,882.5 1830.9,832.8 1826.4,840.1 1746.1,790.3 1750.5,783.1 1670.2,733.4 1665.7,740.6 1585.3,690.9 1589.8,683.7 
		1509.4,634 1505,641.2 1424.6,591.5 1429.1,584.3 1348.8,534.6 1344.3,541.8 1263.9,492.1 1291.3,447.9 1298.5,452.4 	"/>
</g>
<g id="LWPOLYLINE-5">
	
		<rect x="1656.1" y="592" transform="matrix(0.529 -0.8486 0.8486 0.529 244.9642 1727.5104)" class="st1" width="45.4" height="102.2"/>
</g>
<g id="LWPOLYLINE-6">
	<polygon class="st1" points="3170.8,677.5 3145.6,723 3070.4,681.3 3074.5,673.9 2991.8,628 2987.7,635.5 2905.1,589.7 
		2909.2,582.2 2826.6,536.4 2822.4,543.9 2739.8,498.1 2743.9,490.6 2661.3,444.8 2657.2,452.2 2574.5,406.4 2578.6,399 2496,353.2 
		2491.9,360.6 2416.7,318.9 2441.9,273.5 2434.4,269.4 2459.6,223.9 2467.1,228 2492.3,182.6 2567.4,224.3 2563.3,231.7 2646,277.5 
		2650.1,270.1 2732.7,315.9 2728.6,323.3 2811.3,369.1 2815.4,361.7 2898,407.5 2893.9,414.9 2976.5,460.7 2980.7,453.3 
		3063.3,499.1 3059.2,506.6 3141.8,552.4 3145.9,544.9 3221.1,586.6 3195.9,632.2 3203.3,636.3 3178.2,681.6 	"/>
</g>
<g id="LWPOLYLINE-7">
	<rect x="374.5" y="755.6" class="st1" width="108.7" height="8.5"/>
</g>
<g id="LWPOLYLINE-8">
	<rect x="591.8" y="789.6" class="st1" width="108.7" height="8.5"/>
</g>
<g id="LWPOLYLINE-9">
	<polygon class="st1" points="979.6,863.3 979.6,854.8 881.7,854.8 881.7,863.3 783.8,863.3 783.8,854.8 685.8,854.8 685.8,863.3 
		587.9,863.3 587.9,854.8 490,854.8 490,863.3 392.1,863.3 392.1,854.8 294.1,854.8 294.1,863.3 196.2,863.3 196.2,854.8 
		98.3,854.8 98.3,863.3 8.9,863.3 8.9,811.3 0.3,811.3 0.3,759.3 8.9,759.3 8.9,707.4 98.3,707.4 98.3,715.9 196.2,715.9 
		196.2,707.4 294.1,707.4 294.1,715.9 392.1,715.9 392.1,707.4 490,707.4 490,715.9 587.9,715.9 587.9,707.4 685.8,707.4 
		685.8,715.9 783.8,715.9 783.8,707.4 881.7,707.4 881.7,715.9 979.6,715.9 979.6,707.4 1069,707.4 1069,759.3 1077.5,759.3 
		1077.5,811.3 1069,811.3 1069,863.3 	"/>
</g>
<g id="LWPOLYLINE-10">
	<rect x="591.8" y="755.6" class="st1" width="108.7" height="8.5"/>
</g>
<g id="LWPOLYLINE-11">
	<rect x="374.5" y="789.6" class="st1" width="108.7" height="8.5"/>
</g>
<rect x="61.4" y="998" class="st1" width="31.2" height="17"/>
<polygon class="st1" points="790.9,1040.5 790.9,1032 693,1032 693,1040.5 595,1040.5 595,1032 497.1,1032 497.1,1040.5 
	399.2,1040.5 399.2,1032 301.3,1032 301.3,1040.5 203.4,1040.5 203.4,1032 105.4,1032 105.4,1040.5 7.5,1040.5 7.5,988.5 16,988.5 
	16,936.6 7.5,936.6 7.5,884.6 105.4,884.6 105.4,893.1 203.4,893.1 203.4,884.6 301.3,884.6 301.3,893.1 399.2,893.1 399.2,884.6 
	497.1,884.6 497.1,893.1 595,893.1 595,884.6 693,884.6 693,893.1 790.9,893.1 790.9,884.6 888.8,884.6 888.8,893.1 986.8,893.1 
	986.8,884.6 1084.7,884.6 1084.7,936.6 1076.2,936.6 1076.2,988.5 1084.7,988.5 1084.7,1040.5 986.8,1040.5 986.8,1032 888.8,1032 
	888.8,1040.5 "/>
<g id="LWPOLYLINE-12">
	<rect x="376.7" y="361.3" class="st1" width="108.7" height="8.5"/>
</g>
<g id="LWPOLYLINE-13">
	<rect x="594" y="395.3" class="st1" width="108.7" height="8.5"/>
</g>
<g id="LWPOLYLINE-14">
	<polygon class="st1" points="981.8,469 981.8,460.5 883.8,460.5 883.8,469 785.9,469 785.9,460.5 688,460.5 688,469 590.1,469 
		590.1,460.5 492.1,460.5 492.1,469 394.2,469 394.2,460.5 296.3,460.5 296.3,469 198.4,469 198.4,460.5 100.4,460.5 100.4,469 
		11,469 11,417.1 2.5,417.1 2.5,365.1 11,365.1 11,313.1 100.4,313.1 100.4,321.6 198.4,321.6 198.4,313.1 296.3,313.1 296.3,321.6 
		394.2,321.6 394.2,313.1 492.1,313.1 492.1,321.6 590.1,321.6 590.1,313.1 688,313.1 688,321.6 785.9,321.6 785.9,313.1 
		883.8,313.1 883.8,321.6 981.8,321.6 981.8,313.1 1071.2,313.1 1071.2,365.1 1079.7,365.1 1079.7,417.1 1071.2,417.1 1071.2,469 	
		"/>
</g>
<g id="LWPOLYLINE-15">
	<rect x="594" y="361.3" class="st1" width="108.7" height="8.5"/>
</g>
<g id="LWPOLYLINE-16">
	<rect x="376.7" y="395.3" class="st1" width="108.7" height="8.5"/>
</g>
<path class="st1" d="M3352,202.3v-97.9h-8.5V15h-89.4V6.4h-97.9V15h-98V6.4h-97.9V15h-97.9V6.4h-97.9V15h-97.9V6.4h-97.9V15h-97.9
	V6.4h-98V15h-89.4v89.4h-8.5v97.9h8.5v97.9h-8.5v97.9h8.5v97.9h-8.5V594h8.5v97.9h-8.5v97.9h8.5v97.9h-8.5v97.9h8.5v89.4h89.4v8.5
	h98v-8.5h97.9v8.5h97.9v-8.5h97.9v8.5h97.9v-8.5h97.9v8.5h97.9v-8.5h97.9v8.5h97.9v-8.5h89.4v-89.4h8.5v-97.9h-8.5v-97.9h8.5v-97.9
	h-8.5V594h8.5v-97.9h-8.5v-97.9h8.5v-97.9h-8.5v-97.9H3352z M3238.6,214.3h-8.5v94.5h8.5v94.5h-8.5v94.5h8.5v94.5h-8.5v94.5h8.5
	v94.5h-8.5v94.5h8.5v94.5h-94.5v-8.5h-94.5v8.5h-94.5v-8.5h-94.5v8.5h-94.5v-8.5h-94.4v8.5h-94.5v-8.5h-94.5v8.5h-94.5v-94.5h8.5
	v-94.5h-8.5v-94.5h8.5v-94.5h-8.5v-94.5h8.5v-94.5h-8.5v-94.5h8.5v-94.5h-8.5v-94.5h94.5v8.5h94.5v-8.5h94.5v8.5h94.5v-8.5h94.5v8.5
	h94.5v-8.5h94.5v8.5h94.5v-8.5h94.5L3238.6,214.3z"/>
<path class="st1" d="M2205.1,196.2V98.3h-8.5V8.8h-89.4V0.3h-97.9v8.5h-97.9V0.3h-97.9v8.5h-97.9V0.3h-97.9v8.5h-97.9V0.3h-97.9v8.5
	h-97.9V0.3h-97.9v8.5h-89.4v89.4h-8.5v97.9h8.5v97.9h-8.5V392h8.5v98h-8.5v97.9h8.5v97.9h-8.5v97.9h8.5v97.9h-8.5v97.9h8.5v89.4
	h89.4v8.5h97.9v-8.5h97.9v8.5h97.9v-8.5h97.9v8.5h97.9v-8.5h97.9v8.5h97.9v-8.5h97.9v8.5h97.9v-8.5h89.4v-89.4h8.5v-97.9h-8.5v-97.9
	h8.5v-97.9h-8.5v-97.9h8.5V490h-8.5v-98h8.5v-97.9h-8.5v-97.9H2205.1z M2091.7,208.2h-8.5v94.5h8.5v94.5h-8.5v94.5h8.5v94.5h-8.5
	v94.5h8.5v94.5h-8.5v94.5h8.5v94.5h-94.5v-8.5h-94.5v8.5h-94.5v-8.5h-94.5v8.5h-94.5v-8.5h-94.5v8.5h-94.5v-8.5h-94.4v8.5h-94.5
	v-94.5h8.5v-94.5h-8.5v-94.5h8.5v-94.5h-8.5v-94.5h8.5v-94.5h-8.5v-94.5h8.5v-94.5h-8.5v-94.5h94.5v8.5h94.5v-8.5h94.5v8.5h94.5
	v-8.5h94.5v8.5h94.5v-8.5h94.5v8.5h94.5v-8.5h94.5L2091.7,208.2z"/>
</svg>
