<?xml version="1.0" encoding="utf-8"?>
<!-- Generator: Adobe Illustrator 26.0.3, SVG Export Plug-In . SVG Version: 6.00 Build 0)  -->
<svg version="1.1" id="Layer_1" xmlns="http://www.w3.org/2000/svg" xmlns:xlink="http://www.w3.org/1999/xlink" x="0px" y="0px"
	 viewBox="0 0 784.2 719.4" style="enable-background:new 0 0 784.2 719.4;" xml:space="preserve">
<style type="text/css">
	.st0{fill:none;stroke:#000000;stroke-width:0.71;stroke-linecap:round;stroke-linejoin:round;}
</style>
<polygon class="st0" points="8.9,372.5 8.9,347 75.9,347 75.9,338.5 151.5,338.5 151.5,347 218.6,347 218.6,372.5 151.5,372.5 
	151.5,381 75.9,381 75.9,372.5 "/>
<polygon class="st0" points="407.4,181.7 496.2,181.7 496.2,207.2 407.4,207.2 407.4,215.7 327,215.7 327,207.2 238.2,207.2 
	238.2,181.7 327,181.7 327,173.2 407.4,173.2 "/>
<polygon class="st0" points="227.1,372.5 227.1,347 294.2,347 294.2,338.5 369.8,338.5 369.8,347 436.9,347 436.9,372.5 
	369.8,372.5 369.8,381 294.2,381 294.2,372.5 "/>
<polygon class="st0" points="407.4,131.3 496.2,131.3 496.2,156.8 407.4,156.8 407.4,165.3 327,165.3 327,156.8 238.2,156.8 
	238.2,131.3 327,131.3 327,122.8 407.4,122.8 "/>
<polygon class="st0" points="42.9,515.9 34.4,515.9 34.4,596.2 42.9,596.2 42.9,676.6 34.4,676.6 34.4,685.1 80.7,685.1 80.7,676.6 
	118.5,676.6 118.5,685.1 164.8,685.1 164.8,676.6 156.3,676.6 156.3,596.2 164.8,596.2 164.8,515.9 156.3,515.9 156.3,435.6 
	164.8,435.6 164.8,427.1 118.5,427.1 118.5,435.6 80.7,435.6 80.7,427.1 34.4,427.1 34.4,435.6 42.9,435.6 "/>
<polygon class="st0" points="218.6,610.4 227.1,610.4 227.1,719.1 151.5,719.1 151.5,710.6 75.9,710.6 75.9,719.1 0.3,719.1 
	0.3,610.4 8.9,610.4 8.9,501.8 0.3,501.8 0.3,393.1 75.9,393.1 75.9,401.6 151.5,401.6 151.5,393.1 227.1,393.1 227.1,501.8 
	218.6,501.8 "/>
<polygon class="st0" points="42.9,123.2 34.4,123.2 34.4,203.5 42.9,203.5 42.9,283.8 34.4,283.8 34.4,292.3 80.7,292.3 80.7,283.8 
	118.5,283.8 118.5,292.3 164.8,292.3 164.8,283.8 156.3,283.8 156.3,203.5 164.8,203.5 164.8,123.2 156.3,123.2 156.3,42.9 
	164.8,42.9 164.8,34.4 118.5,34.4 118.5,42.9 80.7,42.9 80.7,34.4 34.4,34.4 34.4,42.9 42.9,42.9 "/>
<polygon class="st0" points="218.6,217.7 227.1,217.7 227.1,326.3 151.5,326.3 151.5,317.8 75.9,317.8 75.9,326.3 0.4,326.3 
	0.4,217.7 8.9,217.7 8.9,109 0.4,109 0.4,0.4 75.9,0.4 75.9,8.9 151.5,8.9 151.5,0.4 227.1,0.4 227.1,109 218.6,109 "/>
<polygon class="st0" points="81.7,451.2 107.3,451.2 107.3,518.3 115.8,518.3 115.8,593.9 107.3,593.9 107.3,661 81.7,661 
	81.7,593.9 73.2,593.9 73.2,518.3 81.7,518.3 "/>
<polygon class="st0" points="524,391.9 524,500.6 532.5,500.6 532.5,609.2 524,609.2 524,717.9 498.5,717.9 498.5,609.2 490,609.2 
	490,500.6 498.5,500.6 498.5,391.9 "/>
<polygon class="st0" points="329.2,17 329.2,8.5 375.6,8.5 375.6,17 367.1,17 367.1,42.5 375.6,42.5 375.6,51 329.2,51 329.2,42.5 
	291.5,42.5 291.5,51 245.2,51 245.2,42.5 253.7,42.5 253.7,17 245.2,17 245.2,8.5 291.5,8.5 291.5,17 "/>
<polygon class="st0" points="404,294 492.8,294 492.8,319.5 404,319.5 404,328 323.7,328 323.7,319.5 234.9,319.5 234.9,294 
	323.7,294 323.7,285.5 404,285.5 "/>
<polygon class="st0" points="331.6,451.2 357.1,451.2 357.1,518.3 365.6,518.3 365.6,593.9 357.1,593.9 357.1,661 331.6,661 
	331.6,593.9 323.1,593.9 323.1,518.3 331.6,518.3 "/>
<polygon class="st0" points="404,243.6 492.8,243.6 492.8,269.1 404,269.1 404,277.6 323.7,277.6 323.7,269.1 234.9,269.1 
	234.9,243.6 323.7,243.6 323.7,235.1 404,235.1 "/>
<polygon class="st0" points="287.7,515.9 279.2,515.9 279.2,596.2 287.7,596.2 287.7,676.6 279.2,676.6 279.2,685.1 325.5,685.1 
	325.5,676.6 363.3,676.6 363.3,685.1 409.6,685.1 409.6,676.6 401.1,676.6 401.1,596.2 409.6,596.2 409.6,515.9 401.1,515.9 
	401.1,435.6 409.6,435.6 409.6,427.1 363.3,427.1 363.3,435.6 325.5,435.6 325.5,427.1 279.2,427.1 279.2,435.6 287.7,435.6 "/>
<polygon class="st0" points="463.4,610.4 471.9,610.4 471.9,719.1 396.3,719.1 396.3,710.6 320.8,710.6 320.8,719.1 245.2,719.1 
	245.2,610.4 253.7,610.4 253.7,501.8 245.2,501.8 245.2,393.1 320.8,393.1 320.8,401.6 396.3,401.6 396.3,393.1 471.9,393.1 
	471.9,501.8 463.4,501.8 "/>
<polygon class="st0" points="329.2,75.3 329.2,66.8 375.6,66.8 375.6,75.3 367.1,75.3 367.1,100.8 375.6,100.8 375.6,109.3 
	329.2,109.3 329.2,100.8 291.5,100.8 291.5,109.3 245.2,109.3 245.2,100.8 253.7,100.8 253.7,75.3 245.2,75.3 245.2,66.8 
	291.5,66.8 291.5,75.3 "/>
<polygon class="st0" points="87.4,226.5 87.4,141.4 95.9,132.9 95.9,235 "/>
<polygon class="st0" points="76.2,72.4 76.2,100.7 67.7,109.2 67.7,63.9 "/>
<polygon class="st0" points="131.4,75.4 131.4,103.7 123,112.2 123,66.9 "/>
<polygon class="st0" points="112.1,75.4 112.1,103.7 103.6,112.2 103.6,66.9 "/>
<polygon class="st0" points="94.5,72.4 94.5,100.7 86,109.2 86,63.9 "/>
<polygon class="st0" points="67.7,228.6 67.7,143.6 76.2,135.1 76.2,237.2 "/>
<polygon class="st0" points="141.3,152 141.3,237 132.8,245.5 132.8,143.4 "/>
<polygon class="st0" points="121.6,152 121.6,237 113.1,245.5 113.1,143.4 "/>
</svg>
